<svg width="100" height="15" fill="none" xmlns="http://www.w3.org/2000/svg"><path d="M.26 1.4V14h2.016V8.906h5.058V6.44H2.276V3.848h7.596V1.4H.26zm12.473 12.96c2.394 0 3.51-1.71 3.51-4.86V1.4h-1.98v7.56c0 2.25-.54 2.916-1.53 2.916-.9 0-1.26-.576-1.386-1.296l-1.98.36c.27 2.106 1.296 3.42 3.366 3.42zm5.659-6.66c0 3.672 3.996 6.66 8.928 6.66s8.928-2.988 8.928-6.66-3.996-6.66-8.928-6.66-8.928 2.988-8.928 6.66zm2.214 0c0-2.322 3.006-4.176 6.714-4.176 3.672 0 6.66 1.854 6.66 4.176 0 2.304-2.988 4.158-6.66 4.158-3.708 0-6.714-1.854-6.714-4.158zM40.403 14V8.906h.396l8.28 5.796V12.38l-5.04-3.474h.162c3.798 0 5.076-1.602 5.076-3.744 0-2.07-1.278-3.762-5.076-3.762h-5.814V14h2.016zm3.132-10.278c2.25 0 3.51.414 3.51 1.71 0 1.332-1.26 1.602-3.51 1.602h-3.132V3.722h3.132zm8.159-2.34V14h6.174c4.878 0 8.856-2.466 8.856-6.3 0-3.852-3.978-6.318-8.856-6.318h-6.174zm2.016 10.242V3.722h3.834c3.996 0 6.948 1.296 6.948 3.978 0 2.538-2.952 3.924-6.948 3.924H53.71zm19.473 2.394h1.8V5h-1.8v9.018zm-.27-12.042c0 .594.486 1.116 1.17 1.116a1.13 1.13 0 001.152-1.116c0-.594-.468-1.17-1.152-1.17-.702 0-1.17.576-1.17 1.17zM76.787 14h1.782V9.104c.18-1.098 1.026-2.142 2.52-2.142 1.026 0 2.178.486 2.178 2.592V14h1.782V9.014c0-2.862-1.818-4.284-3.69-4.284-1.44 0-2.286.828-2.79 2.124V5h-1.782v9zm14.203.27c2.52 0 4.392-1.764 4.734-3.942H94.05c-.324.972-1.35 1.692-3.06 1.692-2.142 0-3.222-1.098-3.222-2.43 0-1.35 1.08-2.628 3.222-2.628 1.764 0 2.808.882 3.096 1.962h1.656C95.436 6.71 93.618 4.73 90.99 4.73c-2.898 0-4.86 2.394-4.86 4.86 0 2.484 1.998 4.68 4.86 4.68zm6.08-1.332c0 .72.485 1.206 1.205 1.206.72 0 1.206-.486 1.206-1.206 0-.738-.486-1.224-1.206-1.224s-1.206.486-1.206 1.224z" fill="currentColor"/></svg>