<svg width="89" height="83" fill="none" xmlns="http://www.w3.org/2000/svg"><path d="M75.866 45.73a2.141 2.141 0 100-4.281 2.141 2.141 0 000 4.282zm9.915 32.543c1.064 0 1.927-.958 1.927-2.14s-.863-2.142-1.927-2.142-1.927.959-1.927 2.141.863 2.141 1.927 2.141zm-18.837 3.854H11.275c-2.472 0-4.495-1.976-4.495-4.39V67.14h64.657v10.597c0 2.417-2.021 4.39-4.493 4.39z" fill="#A67EE5" stroke="#fff" stroke-miterlimit="10"/><path d="M80.676 82.127h-55.3c-2.456 0-4.466-1.976-4.466-4.39V67.14h64.23v10.597c0 2.417-2.008 4.39-4.463 4.39z" fill="#A67EE5" stroke="#fff" stroke-miterlimit="10"/><path d="M70.737 37.595H5.617c-2.472 0-4.495 2.015-4.495 4.476v22.07a3 3 0 003 3H75.23V42.07c0-2.461-2.021-4.476-4.493-4.476zm-9.5 38.966h-13c-.898 0-1.636-.705-1.636-1.567v-4.398c0-.254.214-.458.478-.458h1.084c.264 0 .478.204.478.458v3.776c0 .266.227.486.508.486h11.174a.5.5 0 00.508-.486v-3.776c0-.254.214-.458.479-.458h1.083c.265 0 .479.204.479.458v4.398c0 .86-.736 1.566-1.637 1.566z" fill="#A67EE5" stroke="#fff" stroke-miterlimit="10"/><path d="M35.897 64.571H32.47v4.71h3.426v-4.71zm41.106 0h-3.425v4.71h3.425v-4.71zm8.136 13.135V73.99h-3.914c-1.15 0-2.081.977-2.081 2.183v5.953h1.78c2.319 0 4.215-1.989 4.215-4.421zM17.977 71.85h-7.835a.367.367 0 01-.365-.37v-.971c0-.206.163-.371.365-.371h7.835c.201 0 .364.165.364.37v.971a.367.367 0 01-.365.371z" fill="#A67EE5" stroke="#fff" stroke-miterlimit="10"/><path d="M20.657 33.172v34.392" stroke="#fff" stroke-miterlimit="10" stroke-linecap="round"/><path d="M6.764 67.132V43.429a5.829 5.829 0 015.831-5.828v0" stroke="#fff"/><path d="M20.208 31.892l-.842 1.461a.518.518 0 00.45.777h1.686c.4 0 .65-.433.45-.777l-.843-1.461a.522.522 0 00-.9 0z" fill="#fff"/><path d="M11.49 24.854c2.516 4.234 5.705 6.72 9.04 6.72 3.614 0 6.827-2.942 9.096-6.579 2.286-3.664 3.735-8.217 3.735-11.771C33.36 6.269 27.659.62 20.657.62 13.656.62 7.954 6.27 7.954 13.224c0 3.474 1.394 8.025 3.536 11.63z" fill="#3B7BF2" stroke="#fff"/><path d="M16.324 13.144C16.324 6.438 18.264 1 20.657 1 13.92 1 8.454 6.438 8.454 13.144s5.334 18.05 12.072 18.05l.063-.003c-2.384-.071-4.265-11.36-4.265-18.047z" fill="#76ABFF"/><path d="M32.86 13.144C32.86 6.438 27.397 1 20.658 1c2.393 0 4.334 5.438 4.334 12.144 0 6.664-1.962 17.896-4.334 18.04 6.68-.144 12.204-11.376 12.204-18.04z" fill="#1553B7"/><path d="M20.61 31.194c.015 0 .03-.006.048-.006-.024 0-.045.003-.07.003l.022.003z" fill="#3B7BF2"/><path d="M24.99 13.144C24.99 6.438 23.05 1 20.658 1c-2.393 0-4.334 5.438-4.334 12.144 0 6.685 1.882 17.976 4.266 18.047.024 0 .044-.003.068-.003 2.372-.148 4.334-11.38 4.334-18.044z" fill="#3B7BF2"/><path d="M17.88 12.094c-1.325 0-2.21.873-2.21 2.198s.885 2.198 2.21 2.198c1.316 0 2.198-.873 2.198-2.198 0-1.328-.885-2.198-2.198-2.198zm0 3.08c-.718 0-1.183-.359-1.183-.885s.468-.885 1.183-.885c.706 0 1.183.359 1.183.885 0 .53-.48.885-1.183.885zm5.477-3.08c.554 0 .882.622.566 1.08l-5.145 7.465a.689.689 0 01-1.133-.783l5.145-7.465a.683.683 0 01.567-.297zm.57 4.446c-1.325-.012-2.199.873-2.21 2.198 0 1.325.885 2.198 2.21 2.198s2.198-.873 2.198-2.198-.873-2.198-2.198-2.198zm0 3.08c-.719 0-1.183-.359-1.183-.885 0-.539.467-.885 1.183-.885.718 0 1.182.346 1.182.885 0 .53-.467.885-1.182.885z" fill="#fff"/><path d="M63.968 30.08C53.532 44.13 48.46 66.454 48.46 66.454" stroke="#3B7BF2" stroke-miterlimit="10" stroke-linecap="round" stroke-linejoin="round"/><path d="M70.916 26.64c-2.834 3.251-7.435 3.877-7.435 3.877s-.006-4.643 2.828-7.89c2.834-3.247 7.434-3.877 7.434-3.877s.007 4.643-2.827 7.89z" fill="#76ABFF"/><path d="M59.03 31.107c1.167 4.15-.827 8.344-.827 8.344s-3.886-2.54-5.054-6.69c-1.167-4.15.827-8.343.827-8.343s3.886 2.539 5.054 6.69z" fill="#3B7BF2"/><path d="M66.543 40.275c-4.15 1.168-8.34-.827-8.34-.827s2.539-3.886 6.69-5.054c4.15-1.167 8.343.827 8.343.827s-2.542 3.89-6.693 5.054z" fill="#3B7BF2"/><path d="M53.432 42.36c1.475 4.054-.204 8.38-.204 8.38s-4.065-2.24-5.537-6.293c-1.474-4.054.204-8.38.204-8.38s4.065 2.244 5.537 6.294zm8.176 8.584c-4.053 1.475-8.38-.203-8.38-.203s2.241-4.066 6.294-5.537c4.053-1.472 8.38.203 8.38.203s-2.24 4.066-6.294 5.537z" fill="#1553B7"/><path d="M40.438 45.783c5.35 7.985 7.95 20.672 7.95 20.672" stroke="#3B7BF2" stroke-miterlimit="10" stroke-linecap="round" stroke-linejoin="round"/><path d="M34.594 44.132c2.833 3.25 7.434 3.877 7.434 3.877s.006-4.643-2.828-7.89c-2.834-3.248-7.434-3.877-7.434-3.877s-.006 4.643 2.828 7.89zm10.628 2.999c-1.475 4.053.203 8.38.203 8.38s4.066-2.241 5.537-6.294c1.475-4.053-.204-8.38-.204-8.38s-4.065 2.244-5.536 6.294zm-8.177 8.584c4.054 1.474 8.38-.204 8.38-.204s-2.24-4.065-6.294-5.537c-4.053-1.472-8.38.204-8.38.204s2.241 4.065 6.294 5.537z" fill="#3B7BF2"/></svg>