<svg width="188" height="249" fill="none" xmlns="http://www.w3.org/2000/svg"><path d="M117.345 124.816c1.467-.982 3.4.223 3.147 1.971-1.025 7.035-2.074 20.329 4.851 19.404 4.937-.658-16.654-31.533 19.318-38.156 1.632-.3 2.896 1.391 2.176 2.885-1.324 2.737-2.834 6.615-2.729 9.899.063 1.961 2.624 2.675 3.711 1.044 4.096-6.154 15.098-17.857 36.59-10.703.696.232 1.213.82 1.351 1.54.927 4.802 4.126 23.244-.289 28.716-5.088 6.312-15.025 4.144-16.174 10.249-1.3 6.906 7.513 4.825 13.421-.223 1.338-1.144 3.406-.116 3.322 1.642-.253 5.45-2.181 14.017-11.115 18.69-13.78 7.21-23.479-6.957-25.189-3.883-2.591 4.662 7.939 8.47 13.782 10.177 1.616.471 1.969 2.588.613 3.586-10.522 7.742-29.126 10.285-36.973-5.409-8.295-16.59-12.936-12.486-18.194-20.376-5.714-8.569-4.333-22.538 8.381-31.053zm29.403 32.469c.499 2.732 5.199 3.514 8.357 2.939 3.158-.577 8.473-3.832 7.974-6.563-.499-2.732-6.62-3.902-9.778-3.325-3.155.577-7.051 4.22-6.553 6.949z" fill="#E81A5A"/><path d="M116.86 245.878s-4.908-70.272 5.541-80.722" stroke="#E81A5A" stroke-width="2" stroke-miterlimit="10"/><path d="M1 247.1h136.663" stroke="#fff" stroke-width="2" stroke-miterlimit="10" stroke-linecap="round"/><path d="M105.767 247.1a3.54 3.54 0 003.531-3.531v-5.065a3.54 3.54 0 00-3.531-3.531 3.539 3.539 0 00-3.531 3.531v5.065a3.545 3.545 0 003.531 3.531zm-75.54 0a3.54 3.54 0 003.532-3.531v-5.065a3.54 3.54 0 00-3.531-3.531 3.539 3.539 0 00-3.532 3.531v5.065a3.545 3.545 0 003.532 3.531z" fill="#A67EE5" stroke="#fff" stroke-width="2" stroke-miterlimit="10"/><path d="M24.79 238.504h74.503c6.242 0 11.348-5.106 11.348-11.348v-66.081c0-6.242-5.106-11.348-11.348-11.348H24.79c-6.242 0-11.348 5.106-11.348 11.348v66.081c0 6.242 5.106 11.348 11.348 11.348z" fill="#A67EE5" stroke="#fff" stroke-width="2" stroke-miterlimit="10"/><path d="M86.975 158.646v44.961m-35.287-44.961v44.961" stroke="#fff" stroke-width="2" stroke-miterlimit="10" stroke-linecap="round"/><path d="M53.13 137.368h32.403a4.086 4.086 0 014.078 4.078v16.007c0 .663-.53 1.193-1.194 1.193h-2.702c-.663 0-1.193-.53-1.193-1.193v-14.382c0-.696-.572-1.268-1.269-1.268H55.402c-.697 0-1.269.572-1.269 1.268v14.382c0 .663-.53 1.193-1.193 1.193h-2.702c-.664 0-1.194-.53-1.194-1.193v-16.007a4.098 4.098 0 014.086-4.078z" fill="#A67EE5" stroke="#fff" stroke-width="2" stroke-miterlimit="10"/><path d="M39.213 238.504h74.503c6.242 0 11.348-5.106 11.348-11.348v-66.081c0-6.242-5.106-11.348-11.348-11.348H39.213c-6.242 0-11.348 5.106-11.348 11.348v66.081c.008 6.242 5.115 11.348 11.348 11.348z" fill="#A67EE5" stroke="#fff" stroke-width="2" stroke-miterlimit="10"/><path d="M108.096 170.641H44.841m63.255 23.475H44.841m63.255 23.475H44.841" stroke="#fff" stroke-width="2" stroke-miterlimit="10" stroke-linecap="round"/><path d="M21.996 171.892h.672v44.455h-.672a3.527 3.527 0 01-3.514-3.514v-37.418a3.519 3.519 0 013.514-3.523z" fill="#A67EE5" stroke="#fff" stroke-width="2" stroke-miterlimit="10"/><path d="M69.336 137.078L13.749 57.245m55.587 79.833L50.8 57.245m37.061 0l-18.526 79.833m55.579-79.833l-55.58 79.833" stroke="#fff" stroke-width="2" stroke-miterlimit="10" stroke-linecap="round" stroke-linejoin="round"/><path d="M124.915 58.074a.831.831 0 01-.829-.829c0-6.3-7.941-11.422-17.698-11.422-9.557 0-17.498 5.023-17.689 11.19l-.008.232a.831.831 0 01-.829.829.831.831 0 01-.829-.829c0-6.3-7.94-11.422-17.697-11.422-9.757 0-17.698 5.122-17.698 11.422a.831.831 0 01-.828.829.831.831 0 01-.83-.829l-.008-.24c-.199-6.168-8.131-11.182-17.689-11.182-9.756 0-17.697 5.122-17.697 11.422a.831.831 0 01-.829.829.831.831 0 01-.829-.829C12.92 26.135 38.227.829 69.328.829c31.109 0 56.416 25.307 56.416 56.416a.826.826 0 01-.829.829z" fill="#F7396B"/><path d="M69.336 1.658c30.703 0 55.587 24.884 55.587 55.587 0-6.764-8.297-12.251-18.526-12.251-10.105 0-18.311 5.346-18.518 11.994 0 .083-.008.174-.008.257 0-6.764-8.298-12.251-18.527-12.251S50.801 50.48 50.801 57.245c0-.091-.008-.174-.008-.265-.216-6.64-8.422-11.986-18.518-11.986-10.237 0-18.526 5.487-18.526 12.251 0-30.703 24.884-55.587 55.587-55.587zm0-1.658C37.77 0 12.09 25.68 12.09 57.245c0 .912.746 1.658 1.658 1.658.912 0 1.658-.746 1.658-1.658 0-5.844 7.568-10.594 16.868-10.594 9.11 0 16.678 4.659 16.86 10.378l.008.133v.083a1.657 1.657 0 103.316 0c0-5.844 7.568-10.594 16.869-10.594 9.3 0 16.868 4.75 16.868 10.594 0 .912.746 1.658 1.658 1.658.912 0 1.658-.746 1.658-1.658v-.075l.008-.132c.182-5.728 7.742-10.387 16.86-10.387 9.301 0 16.869 4.75 16.869 10.594 0 .912.746 1.658 1.657 1.658.912 0 1.658-.746 1.658-1.658C126.573 25.68 100.893 0 69.336 0z" fill="#fff"/><path d="M69.336 1.658c9.922 0 18.02 20.897 18.543 55.33.207-6.648 8.413-11.994 18.518-11.994 10.237 0 18.526 5.487 18.526 12.251-.008-30.703-24.892-55.587-55.587-55.587z" fill="#E81A5A"/><path d="M69.328 1.658c-30.695 0-55.58 24.884-55.58 55.587 0-6.764 8.298-12.251 18.527-12.251 10.096 0 18.303 5.346 18.518 11.986.522-34.425 8.613-55.322 18.535-55.322z" fill="#FE6183"/><path d="M69.336 1.658c-9.93 0-18.02 20.897-18.543 55.322 0 .09.008.174.008.265 0-6.764 8.298-12.251 18.527-12.251 10.228 0 18.526 5.487 18.526 12.251 0-.091.008-.174.008-.257-.514-34.433-8.604-55.33-18.526-55.33z" fill="#F7396B"/><path d="M176.796 201.401a2.15 2.15 0 01.549 2.172c-1.06 3.426-4.58 12.854-12.101 16.337-5.134 2.377-8.326-2.697-10.923.769-2.654 3.539 2.103 5.034 6.916 4.305 1.877-.285 3.211 1.775 2.141 3.343-2.101 3.076-5.771 6.521-11.725 6.671-10.845.269-12.553-11.584-14.569-10.186-2.722 1.885 1.269 6.548 4.386 9.573 1.325 1.285.54 3.531-1.297 3.706-8.763.839-19.719-3.51-19.794-15-.083-12.937-4.251-11.797-5.115-18.356-.906-6.881 3.883-14.876 13.744-16.686 1.762-.322 3.128 1.514 2.313 3.112-2.412 4.732-5.959 12.606-2.824 12.563 3.461-.048-1.578-22.578 28.432-15.263 1.584.384 2.181 2.329 1.089 3.539l-.099.113c-1.517 1.704.296 4.321 2.406 3.45 3.663-1.517 9.165-1.272 16.471 5.838z" fill="#FE6183"/><path d="M99 245.886s3.48-30.113 21.701-30.113" stroke="#FE6183" stroke-width="2" stroke-miterlimit="10"/></svg>