<svg xmlns="http://www.w3.org/2000/svg" viewBox="0 0 242.04 225.1"><path d="M36.66 222.89a2.2 2.2 0 01-2-2.36L48.32 27.36c1.1-15.49-4.8-21.92-8.75-24.47A1.35 1.35 0 0140.1.44C48.52-.9 67.7-.9 65.52 29.29L51.95 221.77a2.2 2.2 0 01-2.35 2z" fill="#fff"/><path d="M70.02 223.27a2.2 2.2 0 01-2.17-2.23l2.24-193.63C70.28 11.88 64.02 5.8 59.93 3.5a1.35 1.35 0 01.39-2.47c8.36-1.9 27.49-3 27.15 27.28l-2.25 192.93a2.2 2.2 0 01-2.22 2.18z" fill="#fff"/><path d="M220.52 120.53h-17.13a17.6 17.6 0 01-17.52-17.58V65.1a17.6 17.6 0 0117.52-17.58h17.13a17.6 17.6 0 0117.51 17.58v37.83a17.61 17.61 0 01-17.51 17.6z" fill="none" stroke="#fff" stroke-width="2"/><path d="M203.02 154.92h-60.74v-14.19h55.09a9.92 9.92 0 019.9 9.93 4.26 4.26 0 01-4.25 4.25" fill="#a67ee5"/><path d="M203.02 154.92h-60.74v-14.19h55.09a9.92 9.92 0 019.9 9.93 4.26 4.26 0 01-4.25 4.26z" fill="none" stroke="#fff" stroke-miterlimit="10" stroke-width="2"/><path fill="#a67ee5" d="M130.99 223.41h-13.97l-6.31-41.59h13.97l6.31 41.59z"/><path fill="none" stroke="#fff" stroke-miterlimit="10" stroke-width="2" d="M130.99 223.41h-13.97l-6.31-41.59h13.97l6.31 41.59z"/><path fill="#a67ee5" d="M180.54 223.41h-13.96l-6.3-41.59h13.96l6.3 41.59z"/><path fill="none" stroke="#fff" stroke-miterlimit="10" stroke-width="2" d="M180.54 223.41h-13.96l-6.3-41.59h13.96l6.3 41.59z"/><path d="M226.85 167.55h-55.89a5.59 5.59 0 01-5.53-4.77l-10.86-72.24a17.71 17.71 0 00-12.49-31.31H87l-.32 102.87 15.77 23.35 47.19 8.39a12.3 12.3 0 004.22.75h73a13.53 13.53 0 000-27.06" fill="#a67ee5"/><path d="M226.85 167.55h-55.89a5.59 5.59 0 01-5.53-4.77l-10.86-72.24a17.71 17.71 0 00-12.49-31.31H87l-.32 102.87 15.77 23.35 47.19 8.39a12.3 12.3 0 004.22.75h73a13.53 13.53 0 00-.01-27.04z" fill="none" stroke="#fff" stroke-miterlimit="10" stroke-width="2"/><path d="M107.94 162.79L97.08 90.55a17.71 17.71 0 10-29-13.61 18 18 0 00.79 5.25l15.3 101.91a12.36 12.36 0 0012.21 10.54h73a13.53 13.53 0 000-27.05h-55.91a5.62 5.62 0 01-5.53-4.78" fill="#a67ee5"/><path d="M107.94 162.79L97.08 90.55a17.71 17.71 0 10-29-13.61 18 18 0 00.79 5.25l15.3 101.91a12.36 12.36 0 0012.21 10.54h73a13.53 13.53 0 000-27.05h-55.91a5.62 5.62 0 01-5.53-4.8z" fill="none" stroke="#fff" stroke-miterlimit="10" stroke-width="2"/><path d="M151.78 154.92h-72l-2.13-14.19h68.47a9.92 9.92 0 019.9 9.93 4.26 4.26 0 01-4.25 4.25" fill="#a67ee5"/><path d="M151.78 154.92h-72l-2.13-14.19h68.47a9.92 9.92 0 019.9 9.93 4.26 4.26 0 01-4.24 4.26z" fill="none" stroke="#fff" stroke-miterlimit="10" stroke-width="2"/><path fill="none" stroke="#fff" stroke-linecap="round" stroke-miterlimit="10" stroke-width="2" d="M97.08 90.54h57.49"/><path d="M24.7 89.1A131 131 0 0140.29 116a255 255 0 01-20.08-23.55A259 259 0 013.14 66.57 131.72 131.72 0 0124.7 89.1m1.76 20.39a127.19 127.19 0 0122.8 20.49 242.09 242.09 0 01-25.84-15.71A235.86 235.86 0 010 95.57a119.82 119.82 0 0126.46 13.92m12.72-8.91a258.38 258.38 0 0010.08 29.39 125.63 125.63 0 00-4.5-30.52A135.9 135.9 0 0032.7 70.01a260.33 260.33 0 006.47 30.57" fill="#36e69a"/><path d="M52.84 108.62a250.14 250.14 0 002.06 30.67 119.93 119.93 0 003.76-30.05 131.24 131.24 0 00-4-31.36 238.1 238.1 0 00-1.87 30.74M28.6 124.66a121.93 121.93 0 0126.29 14.64 225.91 225.91 0 01-28.16-9.2A228.11 228.11 0 01.36 117.41a113.61 113.61 0 0128.25 7.29m4.97 14.23a118.11 118.11 0 0127.56 11.17 211 211 0 01-28.78-5.6 220.87 220.87 0 01-27.42-9.33 114 114 0 0128.65 3.73" fill="#25b774"/><path d="M64.23 119.89a238 238 0 00-3.1 30.25 117.11 117.11 0 008.82-28.54 127.44 127.44 0 001.42-31.19 213.92 213.92 0 00-7.15 29.48" fill="#25b774"/><path d="M44.38 157.1a118.24 118.24 0 0127.07 12.34 212.3 212.3 0 01-28.53-6.79 220.78 220.78 0 01-27-10.45 114.06 114.06 0 0128.46 4.9m31.41-17.71a236.56 236.56 0 00-4.34 30.1 116.94 116.94 0 0010-28.16 127.42 127.42 0 002.71-31.1 214.43 214.43 0 00-8.36 29.16m-21.38 36.4a118.21 118.21 0 0126.54 13.47 213.62 213.62 0 01-28.23-8 221.65 221.65 0 01-26.55-11.57 113.82 113.82 0 0128.24 6.08" fill="#068e4d"/><path d="M86.52 159.36a236.09 236.09 0 00-5.58 29.9 117.46 117.46 0 0011.15-27.73 127.2 127.2 0 004-31 214.24 214.24 0 00-9.57 28.83" fill="#068e4d"/><path d="M38.14 112.77A529.26 529.26 0 0195 223.1" fill="none" stroke="#36e69a" stroke-linecap="round" stroke-linejoin="round" stroke-width="2"/><path fill="none" stroke="#fff" stroke-linecap="round" stroke-miterlimit="10" stroke-width="2" d="M17.55 224.1h223.49"/><defs><clipPath id="a" transform="translate(0 -70)"><path d="M275 225.43h-17.13a17.6 17.6 0 01-17.52-17.58V170a17.6 17.6 0 0117.52-17.58H275A17.6 17.6 0 01292.51 170v37.83a17.61 17.61 0 01-17.51 17.6z" transform="translate(-54.48 -104.9)"/></clipPath></defs><g transform="translate(0 70)" clip-path="url(#a)" fill="none" stroke="#fff" stroke-linecap="round" stroke-miterlimit="10" stroke-width="2"><path d="M28.18 38.34h62.91M1 28.08h35.29a12.4 12.4 0 1124.8 0h17.93m139.17-4.36h39.78m-19.99-10.27h-27.36a12.4 12.4 0 10-24.8 0h-17.94m78.36 0h22.19"/></g></svg>