<svg width="260" height="253" fill="none" xmlns="http://www.w3.org/2000/svg"><path stroke="#fff" stroke-width="2" stroke-linecap="round" stroke-linejoin="round" d="M1 252h257.521"/><path d="M208.691 155.111a5.691 5.691 0 100-11.383 5.691 5.691 0 000 11.383zm26.357 86.506c2.829 0 5.123-2.548 5.123-5.691s-2.294-5.691-5.123-5.691c-2.828 0-5.122 2.548-5.122 5.691s2.294 5.691 5.122 5.691zm-50.073 10.245H36.99c-6.57 0-11.949-5.253-11.949-11.67v-28.169h171.876v28.169c0 6.424-5.371 11.67-11.942 11.67z" fill="#A67EE5" stroke="#fff" stroke-width="2" stroke-miterlimit="10"/><path d="M221.478 251.862H74.473c-6.526 0-11.87-5.253-11.87-11.67v-28.169h170.738v28.169c0 6.424-5.336 11.67-11.863 11.67zm-26.42-118.378H21.948c-6.57 0-11.948 5.355-11.948 11.897v53.642c0 7.18 5.82 13 13 13h184v-66.642c0-6.542-5.371-11.897-11.942-11.897z" fill="#A67EE5" stroke="#fff" stroke-width="2" stroke-miterlimit="10"/><path d="M169.801 237.065H135.25c-2.389 0-4.351-1.872-4.351-4.165v-11.691c0-.674.568-1.218 1.272-1.218h2.88c.703 0 1.272.544 1.272 1.218v10.037c0 .708.604 1.293 1.351 1.293h29.703c.739 0 1.351-.578 1.351-1.293v-10.037c0-.674.568-1.218 1.272-1.218h2.88c.703 0 1.272.544 1.272 1.218V232.9c0 2.286-1.955 4.165-4.351 4.165zm-67.359-31.871h-9.106v12.52h9.106v-12.52zm109.272 0h-9.106v12.52h9.106v-12.52zm21.627 34.915v-9.874h-10.404c-3.055 0-5.531 2.598-5.531 5.803v15.824h4.732c6.164 0 11.203-5.286 11.203-11.753zM54.805 224.544H33.978a.977.977 0 01-.969-.986v-2.581c0-.546.433-.986.97-.986h20.826c.536 0 .97.44.97.986v2.581a.977.977 0 01-.97.986z" fill="#A67EE5" stroke="#fff" stroke-width="2" stroke-miterlimit="10"/><path d="M135.486 200.8s8.302-74.587 39.714-90.018" stroke="#fff" stroke-width="2" stroke-miterlimit="10" stroke-linecap="round" stroke-linejoin="round"/><path d="M172.715 110.116l9.266-24.486a21.931 21.931 0 018.718 2.971 7.885 7.885 0 015.346-1.31c4.322.508 7.408 4.43 6.9 8.752a7.818 7.818 0 01-2.521 4.887 22.002 22.002 0 01.851 9.178l-25.965 3.299c-1.826.245-3.25-1.564-2.595-3.291z" fill="#3B7BF2"/><path d="M133 210.633s6.89-44.681 37.946-56.528" stroke="#fff" stroke-width="2" stroke-miterlimit="10" stroke-linecap="round" stroke-linejoin="round"/><path d="M165.608 155.036l9.016-16.475c2.3.567 4.368 1.583 6.122 2.926a5.924 5.924 0 014.039-.424c3.126.768 5.031 3.832 4.264 6.849a5.53 5.53 0 01-2.291 3.23 15.22 15.22 0 01-.207 6.58l-19.339-.108c-1.364.001-2.241-1.413-1.604-2.578z" fill="#3B7BF2"/><path d="M62.409 89.713v122.31" stroke="#fff" stroke-width="2" stroke-miterlimit="10" stroke-linecap="round"/><path d="M233.961 106.796a4.892 4.892 0 013.798-4.766v-.005l21.067-5.404c-7.78 14.842-19.176 15.075-19.97 15.075h-.042a4.901 4.901 0 01-4.853-4.9z" fill="#fff"/><path d="M217 92.858l10.76.047c.042-.133 1.026-2.823 4.415-2.904 1.473-.033 2.661.575 3.478 1.759a13.257 13.257 0 011.364 2.585c.632 1.573 4.045 15.802 5.889 19.157 1.102 2.01 4.391 7.162 4.391 7.162.204.347.314.742.314 1.145v9.168s-3.109-1.079-3.109-3.911v-6.53c-1.915.271-6.045-1.649-8.331-2.88-3.15-1.697-5.113-3.702-6.363-6.763-1.231-3.027-1.231-6.088-.109-9.158.347-.946.855-1.834.793-2.913-.066-1.14-1.387-2.719-2.181-4.054L217 92.858z" fill="#fff"/><path d="M25 212v-63.511c0-8.284 6.716-14.989 15-14.989h.5" stroke="#fff" stroke-width="2"/><path d="M96.53 127.163c24.098 32.446 35.81 83.999 35.81 83.999" stroke="#3B7BF2" stroke-width="2" stroke-miterlimit="10" stroke-linecap="round" stroke-linejoin="round"/><path d="M80.485 119.221c6.544 7.506 17.168 8.953 17.168 8.953s.014-10.722-6.53-18.221c-6.544-7.5-17.168-8.953-17.168-8.953s-.014 10.722 6.53 18.221z" fill="#76ABFF"/><path d="M107.933 129.536c-2.697 9.584 1.91 19.267 1.91 19.267s8.973-5.863 11.67-15.447c2.696-9.585-1.91-19.268-1.91-19.268s-8.974 5.863-11.67 15.448z" fill="#3B7BF2"/><path d="M90.582 150.706c9.585 2.696 19.261-1.91 19.261-1.91s-5.864-8.974-15.448-11.67c-9.584-2.696-19.267 1.91-19.267 1.91s5.87 8.981 15.454 11.67z" fill="#3B7BF2"/><path d="M120.86 155.523c-3.406 9.36.47 19.351.47 19.351s9.388-5.175 12.786-14.534c3.406-9.36-.47-19.352-.47-19.352s-9.388 5.182-12.786 14.535zm-18.881 19.822c9.359 3.405 19.351-.471 19.351-.471s-5.175-9.388-14.535-12.786c-9.36-3.398-19.351.47-19.351.47s5.175 9.388 14.535 12.787z" fill="#1553B7"/><path d="M61.336 84.874l-2.182 3.787a1.343 1.343 0 001.163 2.013h4.373c1.035 0 1.685-1.123 1.163-2.013l-2.182-3.787c-.53-.891-1.821-.891-2.335 0z" fill="#fff"/><path d="M62.147 85.01c-8.48 0-16.921-6.403-23.773-18.028-5.817-9.869-9.572-22.297-9.572-31.668 0-18.582 15.116-33.698 33.698-33.698s33.698 15.116 33.698 33.698c0 19.168-15.59 49.696-34.051 49.696z" fill="#3B7BF2"/><path d="M62.5 2.419c18.165 0 32.895 14.73 32.895 32.895 0 18.165-15.083 48.894-33.248 48.894s-32.542-30.73-32.542-48.894c0-18.165 14.73-32.895 32.895-32.895zm0-1.605C43.477.814 28 16.29 28 35.314c0 9.507 3.803 22.096 9.676 32.069 7.004 11.882 15.685 18.421 24.463 18.421 8.793 0 17.603-6.539 24.808-18.405C93.053 57.354 97 44.757 97 35.314 97 16.29 81.523.814 62.5.814z" fill="#fff"/><path d="M50.818 35.394C50.818 17.23 56.05 2.5 62.5 2.5c-18.165 0-32.895 14.73-32.895 32.895 0 18.165 14.377 48.894 32.542 48.894.056 0 .112-.008.168-.008-6.426-.193-11.497-30.77-11.497-48.886z" fill="#76ABFF"/><path d="M95.395 35.394C95.395 17.23 80.665 2.5 62.5 2.5c6.45 0 11.682 14.73 11.682 32.895 0 18.052-5.287 48.477-11.682 48.87 18.004-.393 32.895-30.817 32.895-48.87z" fill="#1553B7"/><path d="M62.372 84.288c.04 0 .08-.016.129-.016-.065 0-.121.008-.186.008.016 0 .04.008.057.008z" fill="#3B7BF2"/><path d="M74.182 35.394C74.182 17.23 68.95 2.5 62.5 2.5S50.818 17.23 50.818 35.395c0 18.109 5.07 48.693 11.497 48.886.064 0 .12-.008.185-.008 6.394-.401 11.682-30.826 11.682-48.878z" fill="#3B7BF2"/><path d="M55.303 28.358c-3.434 0-5.729 2.262-5.729 5.696 0 3.434 2.295 5.697 5.729 5.697 3.41 0 5.696-2.263 5.696-5.697 0-3.442-2.294-5.696-5.696-5.696zm0 7.983c-1.862 0-3.065-.93-3.065-2.295 0-1.364 1.211-2.294 3.065-2.294 1.83 0 3.065.93 3.065 2.294 0 1.372-1.244 2.295-3.065 2.295zm14.193-7.983c1.437 0 2.287 1.613 1.469 2.8L57.63 50.502c-.337.481-.882.77-1.468.77-1.436 0-2.287-1.612-1.468-2.8l13.334-19.344c.33-.481.875-.77 1.468-.77zm1.477 11.521c-3.435-.032-5.697 2.263-5.73 5.697 0 3.434 2.296 5.696 5.73 5.696s5.696-2.262 5.696-5.696c0-3.434-2.263-5.697-5.697-5.697zm0 7.983c-1.862 0-3.065-.93-3.065-2.294 0-1.396 1.211-2.295 3.065-2.295 1.86 0 3.064.899 3.064 2.295 0 1.372-1.211 2.294-3.065 2.294z" fill="#fff"/><path d="M138.549 187.774c2.304 9.105-2.272 18.118-2.272 18.118s-8.317-5.741-10.628-14.847c-2.305-9.105 2.271-18.118 2.271-18.118s8.324 5.748 10.629 14.847z" fill="#3B7BF2"/><path d="M154.389 208.164c-9.106 2.304-18.118-2.272-18.118-2.272s5.741-8.317 14.847-10.628c9.105-2.311 18.118 2.271 18.118 2.271s-5.742 8.324-14.847 10.629z" fill="#3B7BF2"/><path d="M143.323 194.674c-4.927 7.126-7.443 11.126-10.311 16.615" stroke="#3B7BF2" stroke-width="2" stroke-miterlimit="10" stroke-linecap="round" stroke-linejoin="round"/><path d="M158.448 187.185c-6.172 7.079-16.191 8.443-16.191 8.443s-.013-10.112 6.159-17.185c6.172-7.079 16.191-8.443 16.191-8.443s.013 10.112-6.159 17.185z" fill="#76ABFF"/></svg>