<svg xmlns="http://www.w3.org/2000/svg" xmlns:xlink="http://www.w3.org/1999/xlink"><defs><clipPath id="a" transform="translate(0 -70)"><path d="M275 225.43h-17.13a17.6 17.6 0 01-17.52-17.58V170a17.6 17.6 0 0117.52-17.58H275A17.6 17.6 0 01292.51 170v37.83a17.61 17.61 0 01-17.51 17.6z" transform="translate(-54.48 -104.9)"/></clipPath></defs><symbol id="additional-award-from" viewBox="0 0 259.52 252.19"><path d="M208.69 154.3a5.69 5.69 0 10-5.69-5.69 5.69 5.69 0 005.69 5.69" fill="#a67ee5"/><circle cx="208.69" cy="148.61" r="5.69" fill="none" stroke="#fff" stroke-miterlimit="10" stroke-width="2"/><path d="M195.06 132.67H21.95a12 12 0 00-12 11.9v53.62a13 13 0 0013 13h184v-66.62a12 12 0 00-11.94-11.9" fill="#a67ee5"/><path d="M195.06 132.67H21.95a12 12 0 00-12 11.9v53.62a13 13 0 0013 13h184v-66.62a12 12 0 00-11.89-11.9z" fill="none" stroke="#fff" stroke-miterlimit="10" stroke-width="2"/><path d="M25 211.19v-63.51a15 15 0 0115-15h.5" fill="none" stroke="#fff" stroke-width="2"/><path d="M135.49 199.99s8.3-74.59 39.71-90" fill="none" stroke="#fff" stroke-linecap="round" stroke-linejoin="round" stroke-width="2"/><path d="M172.71 109.31l9.27-24.49a22 22 0 018.72 3 7.87 7.87 0 019.72 12.33 22.14 22.14 0 01.86 9.18l-26 3.3a2.45 2.45 0 01-2.6-3.29" fill="#3b7bf2"/><path d="M133 209.82s6.89-44.68 37.95-56.53" fill="none" stroke="#fff" stroke-linecap="round" stroke-linejoin="round" stroke-width="2"/><path d="M165.61 154.19l9-16.47a16.66 16.66 0 016.13 2.93 5.93 5.93 0 014-.42 5.67 5.67 0 014.26 6.85 5.54 5.54 0 01-2.29 3.23 15.1 15.1 0 01-.21 6.58l-19.34-.11a1.76 1.76 0 01-1.6-2.58" fill="#3b7bf2"/><path d="M61.34 84.06l-2.19 3.79a1.34 1.34 0 001.17 2h4.37a1.34 1.34 0 001.16-2l-2.18-3.79a1.35 1.35 0 00-2.33 0" fill="#fff"/><path d="M62.5 1.61A32.91 32.91 0 0195.4 34.5c0 18.17-15.09 48.89-33.25 48.89S29.6 52.66 29.6 34.5A32.91 32.91 0 0162.5 1.61m0-1.61A34.54 34.54 0 0028 34.5c0 9.51 3.8 22.1 9.68 32.07 7 11.88 15.68 18.42 24.46 18.42s17.6-6.54 24.81-18.4C93.05 56.59 97 43.95 97 34.5A34.54 34.54 0 0062.5 0" fill="#fff"/><path d="M50.82 34.58c0-18.16 5.23-32.89 11.68-32.89a32.91 32.91 0 00-32.9 32.89c0 18.17 14.38 48.89 32.55 48.89h.17c-6.43-.19-11.5-30.77-11.5-48.89" fill="#76abff"/><path d="M95.4 34.58A32.91 32.91 0 0062.5 1.69c6.45 0 11.68 14.73 11.68 32.89S68.89 83.06 62.5 83.45c18-.39 32.9-30.82 32.9-48.87" fill="#1553b7"/><path d="M74.18 34.58c0-18.16-5.23-32.89-11.68-32.89S50.82 16.42 50.82 34.58s5.07 48.69 11.5 48.89h.18c6.39-.4 11.68-30.83 11.68-48.88" fill="#3b7bf2"/><path d="M55.3 27.55a5.7 5.7 0 105.7 5.7 5.39 5.39 0 00-5.7-5.7m0 8c-1.86 0-3.06-.93-3.06-2.29s1.21-2.29 3.06-2.29 3.07.93 3.07 2.29-1.25 2.29-3.07 2.29m14.2-8a1.78 1.78 0 011.46 2.8L57.63 49.69a1.79 1.79 0 01-2.94-2l13.34-19.34a1.77 1.77 0 011.47-.77m1.47 11.49a5.7 5.7 0 105.7 5.7 5.4 5.4 0 00-5.7-5.7m0 8c-1.86 0-3.06-.93-3.06-2.29s1.21-2.29 3.06-2.29 3.07.9 3.07 2.29-1.21 2.29-3.07 2.29" fill="#fff"/><path fill="none" stroke="#fff" stroke-linecap="round" stroke-miterlimit="10" stroke-width="2" d="M62.41 88.9v122.31"/><path d="M235.05 240.81a5.72 5.72 0 10-5.12-5.69 5.43 5.43 0 005.12 5.69" fill="#a67ee5"/><ellipse cx="235.05" cy="235.11" rx="5.12" ry="5.69" fill="none" stroke="#fff" stroke-miterlimit="10" stroke-width="2"/><path d="M184.98 251.05h-148a11.85 11.85 0 01-11.95-11.67v-28.19h171.89v28.17a11.84 11.84 0 01-11.94 11.67" fill="#a67ee5"/><path d="M184.98 251.05h-148a11.85 11.85 0 01-11.95-11.67v-28.19h171.89v28.17a11.84 11.84 0 01-11.94 11.69z" fill="none" stroke="#fff" stroke-miterlimit="10" stroke-width="2"/><path d="M221.48 251.05h-147a11.81 11.81 0 01-11.87-11.67v-28.19h170.73v28.17a11.79 11.79 0 01-11.86 11.67" fill="#a67ee5"/><path d="M221.48 251.05h-147a11.81 11.81 0 01-11.87-11.67v-28.19h170.73v28.17a11.79 11.79 0 01-11.86 11.69z" fill="none" stroke="#fff" stroke-miterlimit="10" stroke-width="2"/><path d="M169.76 236.26h-34.51a4.27 4.27 0 01-4.35-4.16v-11.7a1.24 1.24 0 011.27-1.22h2.88a1.25 1.25 0 011.27 1.22v10a1.33 1.33 0 001.35 1.29h29.71a1.33 1.33 0 001.35-1.29v-10a1.24 1.24 0 011.27-1.22h2.88a1.25 1.25 0 011.27 1.22v11.69a4.27 4.27 0 01-4.35 4.16" fill="#a67ee5"/><path d="M169.76 236.26h-34.51a4.27 4.27 0 01-4.35-4.16v-11.7a1.24 1.24 0 011.27-1.22h2.88a1.25 1.25 0 011.27 1.22v10a1.33 1.33 0 001.35 1.29h29.71a1.33 1.33 0 001.35-1.29v-10a1.24 1.24 0 011.27-1.22h2.88a1.25 1.25 0 011.27 1.22v11.69a4.27 4.27 0 01-4.39 4.17z" fill="none" stroke="#fff" stroke-miterlimit="10" stroke-width="2"/><path fill="#a67ee5" d="M93.34 204.38h9.1v12.52h-9.1z"/><path fill="none" stroke="#fff" stroke-miterlimit="10" stroke-width="2" d="M93.34 204.38h9.1v12.52h-9.1z"/><path fill="#a67ee5" d="M202.61 204.38h9.1v12.52h-9.1z"/><path fill="none" stroke="#fff" stroke-miterlimit="10" stroke-width="2" d="M202.61 204.38h9.1v12.52h-9.1z"/><path d="M233.34 239.3v-9.87h-10.4a5.67 5.67 0 00-5.53 5.8v15.82h4.73c6.16 0 11.2-5.29 11.2-11.75" fill="#a67ee5"/><path d="M233.34 239.3v-9.87h-10.4a5.67 5.67 0 00-5.53 5.8v15.82h4.73c6.16 0 11.2-5.28 11.2-11.75z" fill="none" stroke="#fff" stroke-miterlimit="10" stroke-width="2"/><path d="M54.76 223.73H33.98a1 1 0 01-1-1v-2.54a1 1 0 011-1h20.78a1 1 0 011 1v2.58a1 1 0 01-1 1" fill="#a67ee5"/><path d="M54.76 223.73H33.98a1 1 0 01-1-1v-2.54a1 1 0 011-1h20.78a1 1 0 011 1v2.58a1 1 0 01-1 .96z" fill="none" stroke="#fff" stroke-miterlimit="10" stroke-width="2"/><path d="M233.96 105.99a4.89 4.89 0 013.8-4.8l21.07-5.4c-7.78 14.84-19.18 15.07-20 15.07a4.9 4.9 0 01-4.85-4.9" fill="#fff"/><path d="M217 92.05h10.76a4.65 4.65 0 014.41-2.9 3.91 3.91 0 013.48 1.76 13.39 13.39 0 011.37 2.59c.63 1.57 4 15.8 5.89 19.16 1.1 2 4.39 7.16 4.39 7.16a2.3 2.3 0 01.31 1.15v9.22s-3.11-1.08-3.11-3.91v-6.53c-1.91.27-6-1.65-8.33-2.88a12.82 12.82 0 01-6.36-6.76 12.33 12.33 0 01-.11-9.16 7.13 7.13 0 00.79-2.91c-.06-1.14-1.39-2.72-2.18-4.05z" fill="#fff"/><path d="M96.53 126.35c24.1 32.45 35.81 84 35.81 84" fill="none" stroke="#3b7bf2" stroke-linecap="round" stroke-linejoin="round" stroke-width="2"/><path d="M80.49 118.41c6.54 7.51 17.16 9 17.16 9s0-10.72-6.53-18.22-17.17-9-17.17-9 0 10.72 6.54 18.22" fill="#76abff"/><path d="M107.93 128.73c-2.69 9.58 1.91 19.27 1.91 19.27s9-5.86 11.67-15.45-1.91-19.27-1.91-19.27-9 5.86-11.67 15.45" fill="#3b7bf2"/><path d="M90.58 149.9c9.59 2.7 19.26-1.91 19.26-1.91s-5.86-9-15.45-11.67-19.26 1.87-19.26 1.87 5.87 9 15.45 11.67" fill="#3b7bf2"/><path d="M120.86 154.71c-3.41 9.36.47 19.35.47 19.35s9.39-5.18 12.79-14.53-.47-19.34-.47-19.34-9.39 5.18-12.79 14.53m-18.88 19.82c9.36 3.4 19.35-.47 19.35-.47s-5.18-9.39-14.54-12.79-19.35.47-19.35.47 5.18 9.39 14.54 12.79" fill="#1553b7"/><path d="M138.55 186.96c2.3 9.1-2.27 18.12-2.27 18.12s-8.32-5.74-10.63-14.85 2.27-18.12 2.27-18.12 8.32 5.75 10.63 14.85" fill="#3b7bf2"/><path d="M154.39 207.35c-9.11 2.31-18.12-2.27-18.12-2.27s5.74-8.32 14.85-10.63 18.12 2.27 18.12 2.27-5.75 8.32-14.85 10.63" fill="#3b7bf2"/><path d="M143.32 193.86a144.15 144.15 0 00-10.31 16.61" fill="none" stroke="#3b7bf2" stroke-linecap="round" stroke-linejoin="round" stroke-width="2"/><path d="M158.45 186.38c-6.17 7.08-16.19 8.44-16.19 8.44s0-10.11 6.16-17.18 16.19-8.45 16.19-8.45 0 10.11-6.16 17.19" fill="#76abff"/><path fill="none" stroke="#fff" stroke-linecap="round" stroke-linejoin="round" stroke-width="2" d="M1 251.19h257.52"/></symbol><symbol id="additional-award-to" viewBox="0 0 259.52 72.94"><path d="M180.64 1H37.44a11.62 11.62 0 00-11.57 11.61v19.75H192.2V12.6A11.62 11.62 0 00180.64.99" fill="#a67ee5"/><path d="M180.64 1H37.44a11.62 11.62 0 00-11.57 11.61v19.75H192.2V12.6A11.62 11.62 0 00180.64 1z" fill="none" stroke="#fff" stroke-miterlimit="10" stroke-width="2"/><path d="M221.87 1H73.99a11.81 11.81 0 00-11.93 11.61v19.75h171.7V12.6A11.81 11.81 0 00221.83.99" fill="#a67ee5"/><path d="M221.87 1H73.99a11.81 11.81 0 00-11.93 11.61v19.75h171.7V12.6A11.81 11.81 0 00221.87 1z" fill="none" stroke="#fff" stroke-miterlimit="10" stroke-width="2"/><path d="M233.5 22.35a5.34 5.34 0 10-5.32-5.34 5.32 5.32 0 005.32 5.34" fill="#a67ee5"/><ellipse cx="233.5" cy="17.01" rx="5.31" ry="5.34" fill="none" stroke="#fff" stroke-miterlimit="10" stroke-width="2"/><path d="M232.38 12.6v9.75h-10.73a5.72 5.72 0 01-5.71-5.73V1h4.88a11.61 11.61 0 0111.56 11.61" fill="#a67ee5"/><path d="M232.38 12.6v9.75h-10.73a5.72 5.72 0 01-5.71-5.73V1h4.88a11.61 11.61 0 0111.56 11.6z" fill="none" stroke="#fff" stroke-miterlimit="10" stroke-width="2"/><path d="M235.05 61.56a5.72 5.72 0 10-5.12-5.69 5.43 5.43 0 005.12 5.69" fill="#a67ee5"/><ellipse cx="235.05" cy="55.87" rx="5.12" ry="5.69" fill="none" stroke="#fff" stroke-miterlimit="10" stroke-width="2"/><path d="M184.98 71.8h-148a11.85 11.85 0 01-11.95-11.67V31.94h171.89v28.17a11.84 11.84 0 01-11.94 11.67" fill="#a67ee5"/><path d="M184.98 71.8h-148a11.85 11.85 0 01-11.95-11.67V31.94h171.89v28.17a11.84 11.84 0 01-11.94 11.69z" fill="none" stroke="#fff" stroke-miterlimit="10" stroke-width="2"/><path d="M221.48 71.8h-147a11.81 11.81 0 01-11.87-11.67V31.94h170.73v28.17a11.79 11.79 0 01-11.86 11.67" fill="#a67ee5"/><path d="M221.48 71.8h-147a11.81 11.81 0 01-11.87-11.67V31.94h170.73v28.17a11.79 11.79 0 01-11.86 11.69z" fill="none" stroke="#fff" stroke-miterlimit="10" stroke-width="2"/><path d="M169.76 57.01h-34.51a4.27 4.27 0 01-4.35-4.16v-11.7a1.24 1.24 0 011.27-1.22h2.88a1.25 1.25 0 011.27 1.22v10a1.33 1.33 0 001.35 1.29h29.71a1.33 1.33 0 001.35-1.29v-10a1.24 1.24 0 011.27-1.22h2.88a1.25 1.25 0 011.27 1.22v11.69A4.27 4.27 0 01169.8 57" fill="#a67ee5"/><path d="M169.76 57.01h-34.51a4.27 4.27 0 01-4.35-4.16v-11.7a1.24 1.24 0 011.27-1.22h2.88a1.25 1.25 0 011.27 1.22v10a1.33 1.33 0 001.35 1.29h29.71a1.33 1.33 0 001.35-1.29v-10a1.24 1.24 0 011.27-1.22h2.88a1.25 1.25 0 011.27 1.22v11.69a4.27 4.27 0 01-4.39 4.17z" fill="none" stroke="#fff" stroke-miterlimit="10" stroke-width="2"/><path fill="#a67ee5" d="M93.34 25.14h9.1v12.52h-9.1z"/><path fill="none" stroke="#fff" stroke-miterlimit="10" stroke-width="2" d="M93.34 25.14h9.1v12.52h-9.1z"/><path fill="#a67ee5" d="M202.61 25.14h9.1v12.52h-9.1z"/><path fill="none" stroke="#fff" stroke-miterlimit="10" stroke-width="2" d="M202.61 25.14h9.1v12.52h-9.1z"/><path d="M233.34 60.05v-9.87h-10.4a5.67 5.67 0 00-5.53 5.8V71.8h4.73c6.16 0 11.2-5.29 11.2-11.75" fill="#a67ee5"/><path d="M233.34 60.05v-9.87h-10.4a5.67 5.67 0 00-5.53 5.8V71.8h4.73c6.16 0 11.2-5.28 11.2-11.75z" fill="none" stroke="#fff" stroke-miterlimit="10" stroke-width="2"/><path d="M54.76 44.48H33.98a1 1 0 01-1-1v-2.54a1 1 0 011-1h20.78a1 1 0 011 1v2.58a1 1 0 01-1 1" fill="#a67ee5"/><path d="M54.76 44.48H33.98a1 1 0 01-1-1v-2.54a1 1 0 011-1h20.78a1 1 0 011 1v2.58a1 1 0 01-1 .96z" fill="none" stroke="#fff" stroke-miterlimit="10" stroke-width="2"/><path fill="none" stroke="#fff" stroke-linecap="round" stroke-linejoin="round" stroke-width="2" d="M1 71.94h257.52"/></symbol><symbol id="arr"><path stroke="currentColor" stroke-width="2" d="M9 19V1"/><path d="M1 9l8-8 8 8" stroke="currentColor" stroke-width="2" stroke-linejoin="round"/></symbol><symbol id="lose-heading" viewBox="0 0 660.77 109.24"><path d="M.5 90.5v-84h13.44v34.2h37.2V6.5h13.44v84H51.14V57.14h-37.2V90.5H.5zm144.96-84v16.44H94.84V40.1h33.6v16.4h-33.6v17.56h50.64V90.5h-64.1v-84h64.08zm51.6 0l20.52 42.36 15.6-42.36h16.44l-31 84h-16.4l9.48-25.92L183.62 6.5h13.44zm74.52 16.44V90.5h-13.44v-84h50.16v16.44h-36.72zm33.36 67.56l28-84h27.12l28.08 84h-13.48l-7.82-23.52h-37.8l-7.78 23.52h-16.32zm56.64-40l-13.44-40.16L334.7 50.5h26.88zm32.64 58.24V74.06h7.44c4.56-4.68 7.8-18.36 8.76-56l.36-11.56h48.6v67.56h10v34.68H454.7V90.5h-45.86v18.24h-14.62zm51.72-34.68V22.94h-22.56v3.12c-.48 22.44-3.24 37.68-7.2 48h29.76zm29.64 16.44l28-84h27.12l28.04 84H545.3l-7.8-23.52h-37.8l-7.8 23.52h-16.32zm56.64-40l-13.44-40.2-13.44 40.2h26.88zm34.32 24.88a13.77 13.77 0 005 1c6.6 0 10.44-6.24 12-58.32l.52-11.56h46.2v84h-13.42V22.94h-20.18l-.12 3.12c-1.56 53.44-9.7 66.84-24.96 66.84a28.55 28.55 0 01-6.72-.84zm77.4-6.48L645.38.5h13.46l1.44 68.4h-16.34zm8.28 6.36c4.8 0 8 3.24 8 8.16a8.04 8.04 0 01-16.08 0c.04-4.92 3.28-8.16 8.08-8.16z" fill="none" stroke="currentColor"/></symbol><symbol id="next"><path d="M1 1l10 10L1 21" stroke="currentColor" stroke-width="2" stroke-linejoin="round"/></symbol><symbol id="prev"><path d="M11 1L1 11l10 10" stroke="currentColor" stroke-width="2" stroke-linejoin="round"/></symbol><symbol id="primary-award-from" viewBox="0 0 269.43 260.54"><path d="M134.67 179.82h48.36a13.27 13.27 0 0013-10.65l3.74-18.32h-68.18v25.89a3.09 3.09 0 003.08 3.08z" fill="none" stroke="#fff" stroke-linecap="round" stroke-linejoin="round" stroke-width="2"/><path d="M195.02 172.23h-9.22a8.31 8.31 0 01-8.28-8.31v-13.07" fill="none" stroke="#fff" stroke-linecap="round" stroke-miterlimit="10" stroke-width="2"/><path d="M163.48 162.42h-2.05a3.45 3.45 0 00-3.43 3.45v2.92a3.45 3.45 0 003.43 3.45h2.05a3.45 3.45 0 003.43-3.45v-2.92a3.44 3.44 0 00-3.43-3.45zm-18.61 0h-2.05a3.45 3.45 0 00-3.43 3.45v2.92a3.45 3.45 0 003.43 3.45h2.05a3.45 3.45 0 003.43-3.45v-2.92a3.45 3.45 0 00-3.43-3.45z" fill="none" stroke="#fff" stroke-linecap="round" stroke-linejoin="round" stroke-width="2"/><path d="M164.23 157.62c43.38 0 74.86-15.55 74.86-37s-31.48-37-74.86-37c-27.94 0-55.36 13.53-73.46 24.87a14.3 14.3 0 000 24.21c18.09 11.33 45.52 24.87 73.46 24.87" fill="#068e4d"/><path d="M164.23 157.62c43.38 0 74.86-15.55 74.86-37s-31.48-37-74.86-37c-27.94 0-55.36 13.53-73.46 24.87a14.3 14.3 0 000 24.21c18.09 11.38 45.52 24.92 73.46 24.92z" fill="none" stroke="#fff" stroke-width="2"/><path d="M164.23 106.63c-28.23 0-56.07 5.76-72.81 10-3.95 1-6 2.66-6.08 4.34a12.93 12.93 0 016.07-11.43c16.74-10.5 44.58-24.68 72.81-24.68 44.81 0 73.64 16 73.64 35.75v.37c-.37-7.95-29.1-14.37-73.63-14.37" fill="#36e69a"/><path d="M91.41 125.66c16.74 4.27 44.58 10 72.81 10 44.14 0 72.75-6.32 73.6-14.18-.86 19.34-29.45 34.86-73.6 34.86-28.23 0-56.07-14.19-72.81-24.68a12.88 12.88 0 01-6-10.18c.26 1.61 2.26 3.18 6 4.14" fill="#068e4d"/><path d="M91.41 116.66c16.74-4.27 44.58-10 72.81-10 44.53 0 73.26 6.43 73.61 14.38v.51c-.85 7.86-29.45 14.17-73.6 14.17-28.23 0-56.07-5.76-72.81-10-3.79-1-5.79-2.53-6-4.13v-.51c.13-1.69 2.15-3.36 6.1-4.37" fill="#25b774"/><path d="M82.46 103.88h9.16a3.29 3.29 0 013.29 3.3v5.71a3.29 3.29 0 01-3.29 3.3H74.8a1.32 1.32 0 01-1.32-1.32v-2a9 9 0 019-9" fill="#068e4d"/><path d="M82.46 103.88h9.16a3.29 3.29 0 013.29 3.3v5.71a3.29 3.29 0 01-3.29 3.3H74.8a1.32 1.32 0 01-1.32-1.32v-2a9 9 0 018.98-8.99z" fill="none" stroke="#fff" stroke-linecap="round" stroke-linejoin="round" stroke-width="2"/><path d="M82.46 137.93h9.16a3.29 3.29 0 003.29-3.3v-5.71a3.29 3.29 0 00-3.29-3.3H74.8a1.32 1.32 0 00-1.32 1.32v2a9 9 0 009 9" fill="#068e4d"/><path d="M82.46 137.93h9.16a3.29 3.29 0 003.29-3.3v-5.71a3.29 3.29 0 00-3.29-3.3H74.8a1.32 1.32 0 00-1.32 1.32v2a9 9 0 008.98 8.99z" fill="none" stroke="#fff" stroke-linecap="round" stroke-linejoin="round" stroke-width="2"/><path d="M82.46 103.88h9.16a3.29 3.29 0 013.29 3.3v5.71a3.29 3.29 0 01-3.29 3.3H74.8a1.32 1.32 0 01-1.32-1.32v-2a9 9 0 019-9" fill="#068e4d"/><path d="M82.46 103.88h9.16a3.29 3.29 0 013.29 3.3v5.71a3.29 3.29 0 01-3.29 3.3H74.8a1.32 1.32 0 01-1.32-1.32v-2a9 9 0 018.98-8.99z" fill="none" stroke="#fff" stroke-linecap="round" stroke-linejoin="round" stroke-width="2"/><path d="M82.46 137.93h9.16a3.29 3.29 0 003.29-3.3v-5.71a3.29 3.29 0 00-3.29-3.3H74.8a1.32 1.32 0 00-1.32 1.32v2a9 9 0 009 9" fill="#068e4d"/><path d="M82.46 137.93h9.16a3.29 3.29 0 003.29-3.3v-5.71a3.29 3.29 0 00-3.29-3.3H74.8a1.32 1.32 0 00-1.32 1.32v2a9 9 0 008.98 8.99z" fill="none" stroke="#fff" stroke-linecap="round" stroke-linejoin="round" stroke-width="2"/><path fill="none" stroke="#fff" stroke-linecap="round" stroke-miterlimit="10" stroke-width="2" d="M28.18 38.34h62.91M1 28.08h35.29a12.4 12.4 0 1124.8 0h17.93m139.17-4.36h39.78m-19.99-10.27h-27.36a12.4 12.4 0 10-24.8 0h-17.94m78.36 0h22.19M65.48 110.03h-22.2m22.2 21.74h-22.2m22.2-10.25H28m221.17 136.9h-45.06l-32.08-31.3a1.89 1.89 0 00-2.44 0l-10.2 10.23a1.72 1.72 0 01-2.25 0l-19-20.17a2.4 2.4 0 00-3.1 0l-26.42 25.64a1.71 1.71 0 01-2.25 0l-2.63-2.92a1.71 1.71 0 00-2.31 0l-17.57 19.64H40.01m209.16-1H40.01"/></symbol><symbol id="primary-award-to" viewBox="0 0 242.04 225.1"><path d="M36.66 222.89a2.2 2.2 0 01-2-2.36L48.32 27.36c1.1-15.49-4.8-21.92-8.75-24.47A1.35 1.35 0 0140.1.44C48.52-.9 67.7-.9 65.52 29.29L51.95 221.77a2.2 2.2 0 01-2.35 2z" fill="#fff"/><path d="M70.02 223.27a2.2 2.2 0 01-2.17-2.23l2.24-193.63C70.28 11.88 64.02 5.8 59.93 3.5a1.35 1.35 0 01.39-2.47c8.36-1.9 27.49-3 27.15 27.28l-2.25 192.93a2.2 2.2 0 01-2.22 2.18z" fill="#fff"/><path d="M220.52 120.53h-17.13a17.6 17.6 0 01-17.52-17.58V65.1a17.6 17.6 0 0117.52-17.58h17.13a17.6 17.6 0 0117.51 17.58v37.83a17.61 17.61 0 01-17.51 17.6z" fill="none" stroke="#fff" stroke-width="2"/><path d="M203.02 154.92h-60.74v-14.19h55.09a9.92 9.92 0 019.9 9.93 4.26 4.26 0 01-4.25 4.25" fill="#a67ee5"/><path d="M203.02 154.92h-60.74v-14.19h55.09a9.92 9.92 0 019.9 9.93 4.26 4.26 0 01-4.25 4.26z" fill="none" stroke="#fff" stroke-miterlimit="10" stroke-width="2"/><path fill="#a67ee5" d="M130.99 223.41h-13.97l-6.31-41.59h13.97l6.31 41.59z"/><path fill="none" stroke="#fff" stroke-miterlimit="10" stroke-width="2" d="M130.99 223.41h-13.97l-6.31-41.59h13.97l6.31 41.59z"/><path fill="#a67ee5" d="M180.54 223.41h-13.96l-6.3-41.59h13.96l6.3 41.59z"/><path fill="none" stroke="#fff" stroke-miterlimit="10" stroke-width="2" d="M180.54 223.41h-13.96l-6.3-41.59h13.96l6.3 41.59z"/><path d="M226.85 167.55h-55.89a5.59 5.59 0 01-5.53-4.77l-10.86-72.24a17.71 17.71 0 00-12.49-31.31H87l-.32 102.87 15.77 23.35 47.19 8.39a12.3 12.3 0 004.22.75h73a13.53 13.53 0 000-27.06" fill="#a67ee5"/><path d="M226.85 167.55h-55.89a5.59 5.59 0 01-5.53-4.77l-10.86-72.24a17.71 17.71 0 00-12.49-31.31H87l-.32 102.87 15.77 23.35 47.19 8.39a12.3 12.3 0 004.22.75h73a13.53 13.53 0 00-.01-27.04z" fill="none" stroke="#fff" stroke-miterlimit="10" stroke-width="2"/><path d="M107.94 162.79L97.08 90.55a17.71 17.71 0 10-29-13.61 18 18 0 00.79 5.25l15.3 101.91a12.36 12.36 0 0012.21 10.54h73a13.53 13.53 0 000-27.05h-55.91a5.62 5.62 0 01-5.53-4.78" fill="#a67ee5"/><path d="M107.94 162.79L97.08 90.55a17.71 17.71 0 10-29-13.61 18 18 0 00.79 5.25l15.3 101.91a12.36 12.36 0 0012.21 10.54h73a13.53 13.53 0 000-27.05h-55.91a5.62 5.62 0 01-5.53-4.8z" fill="none" stroke="#fff" stroke-miterlimit="10" stroke-width="2"/><path d="M151.78 154.92h-72l-2.13-14.19h68.47a9.92 9.92 0 019.9 9.93 4.26 4.26 0 01-4.25 4.25" fill="#a67ee5"/><path d="M151.78 154.92h-72l-2.13-14.19h68.47a9.92 9.92 0 019.9 9.93 4.26 4.26 0 01-4.24 4.26z" fill="none" stroke="#fff" stroke-miterlimit="10" stroke-width="2"/><path fill="none" stroke="#fff" stroke-linecap="round" stroke-miterlimit="10" stroke-width="2" d="M97.08 90.54h57.49"/><path d="M24.7 89.1A131 131 0 0140.29 116a255 255 0 01-20.08-23.55A259 259 0 013.14 66.57 131.72 131.72 0 0124.7 89.1m1.76 20.39a127.19 127.19 0 0122.8 20.49 242.09 242.09 0 01-25.84-15.71A235.86 235.86 0 010 95.57a119.82 119.82 0 0126.46 13.92m12.72-8.91a258.38 258.38 0 0010.08 29.39 125.63 125.63 0 00-4.5-30.52A135.9 135.9 0 0032.7 70.01a260.33 260.33 0 006.47 30.57" fill="#36e69a"/><path d="M52.84 108.62a250.14 250.14 0 002.06 30.67 119.93 119.93 0 003.76-30.05 131.24 131.24 0 00-4-31.36 238.1 238.1 0 00-1.87 30.74M28.6 124.66a121.93 121.93 0 0126.29 14.64 225.91 225.91 0 01-28.16-9.2A228.11 228.11 0 01.36 117.41a113.61 113.61 0 0128.25 7.29m4.97 14.23a118.11 118.11 0 0127.56 11.17 211 211 0 01-28.78-5.6 220.87 220.87 0 01-27.42-9.33 114 114 0 0128.65 3.73" fill="#25b774"/><path d="M64.23 119.89a238 238 0 00-3.1 30.25 117.11 117.11 0 008.82-28.54 127.44 127.44 0 001.42-31.19 213.92 213.92 0 00-7.15 29.48" fill="#25b774"/><path d="M44.38 157.1a118.24 118.24 0 0127.07 12.34 212.3 212.3 0 01-28.53-6.79 220.78 220.78 0 01-27-10.45 114.06 114.06 0 0128.46 4.9m31.41-17.71a236.56 236.56 0 00-4.34 30.1 116.94 116.94 0 0010-28.16 127.42 127.42 0 002.71-31.1 214.43 214.43 0 00-8.36 29.16m-21.38 36.4a118.21 118.21 0 0126.54 13.47 213.62 213.62 0 01-28.23-8 221.65 221.65 0 01-26.55-11.57 113.82 113.82 0 0128.24 6.08" fill="#068e4d"/><path d="M86.52 159.36a236.09 236.09 0 00-5.58 29.9 117.46 117.46 0 0011.15-27.73 127.2 127.2 0 004-31 214.24 214.24 0 00-9.57 28.83" fill="#068e4d"/><path d="M38.14 112.77A529.26 529.26 0 0195 223.1" fill="none" stroke="#36e69a" stroke-linecap="round" stroke-linejoin="round" stroke-width="2"/><path fill="none" stroke="#fff" stroke-linecap="round" stroke-miterlimit="10" stroke-width="2" d="M17.55 224.1h223.49"/><g transform="translate(0 70)" clip-path="url(#a)" fill="none" stroke="#fff" stroke-linecap="round" stroke-miterlimit="10" stroke-width="2"><path d="M28.18 38.34h62.91M1 28.08h35.29a12.4 12.4 0 1124.8 0h17.93m139.17-4.36h39.78m-19.99-10.27h-27.36a12.4 12.4 0 10-24.8 0h-17.94m78.36 0h22.19"/></g></symbol><symbol id="prize1-mob"><path d="M88.503 25.5h-6.006c-3.321 0-5.997-2.585-5.997-5.694V7.194c0-3.11 2.676-5.694 5.997-5.694h6.006c3.321 0 5.997 2.585 5.997 5.694v12.612c0 3.107-2.676 5.694-5.997 5.694z" stroke="#fff"/><path d="M80.155 42.57h-26.09v-6.094h23.662a4.261 4.261 0 014.253 4.267 1.831 1.831 0 01-1.825 1.827zM48.867 69.69a2 2 0 01-1.977 2.3h-1.953a2 2 0 01-1.978-1.7l-2.104-13.864a2 2 0 011.978-2.3h1.953a2 2 0 011.977 1.7l2.104 13.865zm21.286.001a2 2 0 01-1.978 2.3h-1.953a2 2 0 01-1.977-1.7l-2.102-13.865a2 2 0 011.978-2.3h1.953a2 2 0 011.978 1.7l2.1 13.865z" fill="#A67EE5" stroke="#fff" stroke-miterlimit="10"/><path d="M82.031 47.999H66.382a2.403 2.403 0 01-2.373-2.05l-4.664-31.03a7.618 7.618 0 002.708-6.393c-.262-3.753-3.296-6.797-7.037-7.055a7.541 7.541 0 00-1.034 0H30.32l-.135 44.194 6.772 10.03 20.269 3.604a5.29 5.29 0 001.815.324h22.99c3.201 0 5.792-2.603 5.792-5.81 0-3.211-2.59-5.814-5.792-5.814z" fill="#A67EE5" stroke="#fff" stroke-miterlimit="10"/><path d="M39.316 45.954l-4.663-31.03a7.618 7.618 0 002.707-6.393c-.261-3.753-3.295-6.797-7.037-7.055-4.438-.306-8.133 3.215-8.133 7.602 0 .786.12 1.543.338 2.257l6.576 43.764a5.31 5.31 0 005.244 4.53h31.349c3.2 0 5.792-2.604 5.792-5.811 0-3.211-2.595-5.81-5.792-5.81H41.69a2.416 2.416 0 01-2.374-2.054z" fill="#A67EE5" stroke="#fff" stroke-miterlimit="10"/><path d="M58.144 42.57H27.22l-.914-6.094h29.41a4.261 4.261 0 014.253 4.267 1.831 1.831 0 01-1.825 1.827z" fill="#A67EE5" stroke="#fff" stroke-miterlimit="10"/><path d="M34.653 14.92h24.692" stroke="#fff" stroke-miterlimit="10" stroke-linecap="round"/><path d="M18.438 72.5c9.535 0 17.265-7.73 17.265-17.266 0-9.535-7.73-17.265-17.266-17.265-9.535 0-17.265 7.73-17.265 17.265 0 9.536 7.73 17.266 17.265 17.266z" fill="#36E69A" stroke="#fff"/><path d="M11.887 55.234c0-9.195 2.932-16.649 6.55-16.649-9.194 0-16.649 7.455-16.649 16.65s7.455 16.648 16.65 16.648c-3.62-.002-6.55-7.454-6.55-16.649z" fill="#068E4D"/><path d="M18.438 38.585c3.616 0 6.55 7.454 6.55 16.65s-2.932 16.648-6.55 16.648c9.194 0 16.649-7.454 16.649-16.649s-7.455-16.649-16.65-16.649z" fill="#36E69A"/><path d="M18.438 71.883c3.617 0 6.55-7.454 6.55-16.649s-2.933-16.649-6.55-16.649c-3.618 0-6.55 7.454-6.55 16.65 0 9.194 2.932 16.648 6.55 16.648z" fill="#25B774"/><path d="M13.234 53.328c0-2.393 3.102-3.297 5.131-3.297 2.392 0 5.276.904 5.276 3.204 0 2.086-2.42 1.994-3.407 2.575-.575.332-.916.934-.995 1.642-.056.49-.448.857-.914.857-.555 0-.983-.512-.917-1.096.115-1.021.75-2.05 2.394-2.555 1.45-.444 2-.597 2-1.134 0-.98-2.015-1.425-3.494-1.411-1.218 0-3.407.322-3.407 1.747v.007c0 .345-.281.613-.6.55l-.621-.12a.527.527 0 01-.416-.464 4.648 4.648 0 01-.03-.505zm4.219 6.868c0-.629.392-1.042.972-1.042s.972.415.972 1.042c0 .614-.392 1.042-.972 1.042s-.972-.428-.972-1.042z" fill="#fff"/></symbol><symbol id="prize1"><path d="M62.126 222.89a2.2 2.2 0 01-2.036-2.356L73.752 27.366c1.098-15.486-4.8-21.92-8.745-24.47-1.023-.662-.668-2.247.532-2.45C73.997-.953 93.16-.884 91.022 29.29L77.41 221.763a2.199 2.199 0 01-2.349 2.043l-12.935-.916z" fill="#fff"/><path d="M95.483 223.263a2.201 2.201 0 01-2.171-2.229L95.55 27.4c.186-15.528-6.075-21.606-10.165-23.911-1.064-.602-.802-2.204.389-2.475 8.356-1.899 27.494-2.967 27.147 27.284l-2.247 192.931a2.2 2.2 0 01-2.222 2.178l-12.97-.144z" fill="#fff"/><path d="M245.97 120.526h-17.118c-9.634 0-17.52-7.907-17.52-17.58V65.118c0-9.673 7.886-17.58 17.52-17.58h17.118c9.635 0 17.521 7.907 17.521 17.58v37.828c0 9.665-7.886 17.58-17.521 17.58z" stroke="#fff" stroke-width="2"/><path d="M228.482 154.913h-60.741v-14.189h55.089c5.466 0 9.902 4.45 9.902 9.934-.008 2.348-1.909 4.255-4.25 4.255zm-72.029 68.494h-13.966l-6.312-41.591h13.967l6.311 41.591zm49.555 0h-13.967l-6.303-41.591h13.967l6.303 41.591z" fill="#A67EE5" stroke="#fff" stroke-width="2" stroke-miterlimit="10"/><path d="M252.309 167.551h-55.891a5.595 5.595 0 01-5.526-4.772l-10.857-72.242c4.174-3.5 6.717-8.9 6.303-14.883-.608-8.74-7.672-15.825-16.383-16.427-.811-.06-1.614-.05-2.408 0h-55.089l-.312 102.89 15.766 23.352 47.189 8.391c1.326.483 2.746.754 4.224.754h72.984c7.452 0 13.485-6.06 13.485-13.527 0-7.476-6.033-13.536-13.485-13.536z" fill="#A67EE5" stroke="#fff" stroke-width="2" stroke-miterlimit="10"/><path d="M133.404 162.787l-10.857-72.241c4.174-3.5 6.717-8.9 6.303-14.884-.608-8.739-7.672-15.825-16.383-16.426-10.333-.712-18.934 7.484-18.934 17.698 0 1.83.278 3.593.785 5.255l15.31 101.89c.913 6.06 6.1 10.544 12.209 10.544h72.984c7.452 0 13.485-6.06 13.485-13.528 0-7.476-6.041-13.527-13.485-13.527H138.93a5.625 5.625 0 01-5.526-4.781z" fill="#A67EE5" stroke="#fff" stroke-width="2" stroke-miterlimit="10"/><path d="M177.238 154.913h-71.995l-2.129-14.189h68.472c5.466 0 9.902 4.45 9.902 9.934-.008 2.348-1.909 4.255-4.25 4.255z" fill="#A67EE5" stroke="#fff" stroke-width="2" stroke-miterlimit="10"/><path d="M122.547 90.537h57.488" stroke="#fff" stroke-width="2" stroke-miterlimit="10" stroke-linecap="round"/><path d="M50.163 89.071c10.35 13.753 15.589 26.951 15.589 26.924-.026-.007-9.88-10.007-20.077-23.553C35.503 78.871 28.61 66.582 28.608 66.56c-.026-.007 11.227 8.74 21.555 22.511zm1.759 20.418c13.717 9.539 22.811 20.511 22.797 20.486-.019.006-12.308-6.27-25.84-15.708-13.514-9.465-23.412-18.675-23.416-18.7-.023.007 12.753 4.356 26.459 13.922z" fill="#36E69A"/><path d="M64.64 100.581c4.567 16.471 10.059 29.379 10.079 29.394-.018.017.097-13.847-4.497-30.522-4.563-16.677-12.075-29.46-12.055-29.445-.014.014 1.937 14.1 6.473 30.573z" fill="#36E69A"/><path d="M78.298 108.621c.095 16.905 2.051 30.654 2.06 30.67-.025.004 3.784-13.013 3.763-30.054.008-17.037-3.966-31.378-3.958-31.355-.019.005-1.929 13.843-1.865 30.739z" fill="#25B774"/><path d="M54.065 124.656c15.151 6.039 26.312 14.657 26.294 14.635-.008.015-13.167-3.197-28.171-9.239-14.994-6.071-26.355-12.676-26.368-12.69-.014.013 13.099 1.224 28.245 7.294zm4.979 14.274c15.592 4.071 27.573 11.22 27.556 11.209-.003.023-13.309-1.46-28.784-5.605-15.473-4.17-27.41-9.318-27.419-9.334-.006.026 13.06-.372 28.647 3.73zm30.652-19.044c-2.764 16.471-3.098 30.231-3.095 30.246-.023-.003 5.936-11.994 8.824-28.543 2.913-16.535 1.416-31.206 1.422-31.188-.028 0-4.359 13.026-7.151 29.485z" fill="#25B774"/><path d="M69.84 157.14c15.412 4.711 27.084 12.354 27.07 12.34-.002.023-13.238-2.017-28.528-6.793-15.29-4.804-26.995-10.439-27.005-10.455-.006.026 13.057.167 28.464 4.908z" fill="#068E4D"/><path d="M101.254 139.387c-3.444 16.341-4.347 30.078-4.341 30.097-.024-.003 6.431-11.74 9.995-28.158 3.595-16.402 2.706-31.116 2.711-31.097-.024-.003-4.893 12.828-8.365 29.158zM79.878 175.79c15.203 5.349 26.557 13.481 26.544 13.467-.006.019-13.147-2.571-28.23-7.979-15.081-5.443-26.544-11.555-26.553-11.571-.007.025 13.041.704 28.24 6.083z" fill="#068E4D"/><path d="M111.998 159.354c-4.117 16.186-5.586 29.887-5.579 29.899-.026-.007 6.906-11.475 11.148-27.729 4.268-16.247 3.994-30.981 3.993-30.964-.024-.003-5.419 12.614-9.562 28.794z" fill="#068E4D"/><path d="M63.598 112.768a529.294 529.294 0 0156.86 110.366" stroke="#36E69A" stroke-width="2" stroke-miterlimit="10" stroke-linecap="round" stroke-linejoin="round"/><path d="M43.01 224.097H266.5" stroke="#fff" stroke-width="2" stroke-miterlimit="10" stroke-linecap="round"/></symbol><symbol id="prize2-mob"><path d="M64.853 10.745c.932-.182 1.64.816 1.153 1.63-1.967 3.278-5.244 9.654-1.618 10.631 2.586.698-1.722-19.094 17.494-14.92.871.19 1.148 1.29.481 1.882-1.224 1.083-2.777 2.693-3.406 4.344-.375.985.747 1.871 1.624 1.287 3.308-2.203 11.192-5.727 20.369 2.278.297.26.432.658.35 1.044-.535 2.574-2.773 12.385-6.097 14.184-3.833 2.076-8.312-1.06-10.148 1.73-2.076 3.156 2.727 3.95 6.704 2.672.9-.29 1.713.648 1.307 1.503-1.255 2.65-3.988 6.5-9.388 6.966-8.33.72-10.204-8.32-11.69-7.149-2.251 1.776 2.182 5.848 4.727 7.906.703.569.44 1.692-.44 1.906-6.825 1.658-16.58-.938-17.218-10.35-.674-9.948-3.827-8.874-4.8-13.878-1.057-5.436 2.524-12.078 10.596-13.666zm7.853 22.202c-.32 1.459 1.85 2.821 3.535 3.19 1.686.37 4.997-.143 5.316-1.602.32-1.458-2.474-3.307-4.16-3.676-1.685-.368-4.373.631-4.691 2.088z" fill="#E81A5A"/><path d="M89.56 47.366c.227.318.252.736.073 1.081-.8 1.539-3.291 5.72-7.171 6.726-2.648.686-3.728-2.004-5.264-.58-1.569 1.454.565 2.577 2.919 2.647.917.027 1.373 1.122.729 1.776-1.266 1.282-3.31 2.603-6.156 2.16-5.183-.811-4.97-6.599-6.05-6.108-1.458.661.037 3.225 1.258 4.934.52.726-.049 1.727-.938 1.651-4.242-.36-9.078-3.376-8.12-8.85 1.08-6.162-1.001-5.98-.844-9.176.164-3.352 3.135-6.741 7.983-6.75a1.045 1.045 0 01.831 1.681c-1.557 2.043-3.926 5.483-2.43 5.733 1.65.277 1.202-10.878 14.848-4.8.72.32.836 1.296.212 1.777l-.057.045c-.87.68-.234 2.082.846 1.85 1.874-.405 4.47.188 7.331 4.203z" fill="#FE6183"/><path d="M51.286 68.107a1.922 1.922 0 001.918-1.918v-2.75a1.922 1.922 0 00-1.918-1.918 1.922 1.922 0 00-1.917 1.918v2.75c0 1.054.864 1.918 1.917 1.918zm-41.023 0a1.922 1.922 0 001.917-1.918v-2.75a1.922 1.922 0 00-1.917-1.918 1.922 1.922 0 00-1.918 1.918v2.75c0 1.054.864 1.918 1.918 1.918z" fill="#A67EE5" stroke="#fff" stroke-miterlimit="10"/><path d="M7.31 63.439h40.46c3.39 0 6.163-2.773 6.163-6.163V21.39c0-3.39-2.773-6.163-6.163-6.163H7.31c-3.39 0-6.163 2.773-6.163 6.163v35.887c0 3.39 2.773 6.163 6.162 6.163z" fill="#A67EE5" stroke="#fff" stroke-miterlimit="10"/><path d="M41.08 20.07v24.417M21.918 20.07v24.417" stroke="#fff" stroke-miterlimit="10" stroke-linecap="round"/><path d="M22.7 8.514h17.598a2.22 2.22 0 012.215 2.215v8.693c0 .36-.289.648-.649.648h-1.467a.646.646 0 01-.649-.648v-7.81a.692.692 0 00-.688-.69H23.934a.692.692 0 00-.689.69v7.81c0 .36-.288.648-.648.648H21.13a.646.646 0 01-.648-.648v-8.693c.005-1.22 1-2.215 2.22-2.215z" fill="#A67EE5" stroke="#fff" stroke-miterlimit="10"/><path d="M15.142 63.439h40.462c3.39 0 6.162-2.773 6.162-6.163V21.39c0-3.39-2.773-6.163-6.162-6.163H15.142c-3.39 0-6.162 2.773-6.162 6.163v35.887c.004 3.39 2.777 6.163 6.162 6.163z" fill="#A67EE5" stroke="#fff" stroke-miterlimit="10"/><path d="M52.551 26.584H18.2m34.352 12.749H18.2M52.551 52.08H18.2" stroke="#fff" stroke-miterlimit="10" stroke-linecap="round"/><path d="M5.792 27.263h.365v24.143h-.365a1.915 1.915 0 01-1.908-1.909v-20.32a1.91 1.91 0 011.908-1.914z" fill="#A67EE5" stroke="#fff" stroke-miterlimit="10"/></symbol><symbol id="prize2"><path d="M117.345 124.816c1.467-.982 3.4.223 3.147 1.971-1.025 7.035-2.074 20.329 4.851 19.404 4.937-.658-16.654-31.533 19.318-38.156 1.632-.3 2.896 1.391 2.176 2.885-1.324 2.737-2.834 6.615-2.729 9.899.063 1.961 2.624 2.675 3.711 1.044 4.096-6.154 15.098-17.857 36.59-10.703.696.232 1.213.82 1.351 1.54.927 4.802 4.126 23.244-.289 28.716-5.088 6.312-15.025 4.144-16.174 10.249-1.3 6.906 7.513 4.825 13.421-.223 1.338-1.144 3.406-.116 3.322 1.642-.253 5.45-2.181 14.017-11.115 18.69-13.78 7.21-23.479-6.957-25.189-3.883-2.591 4.662 7.939 8.47 13.782 10.177 1.616.471 1.969 2.588.613 3.586-10.522 7.742-29.126 10.285-36.973-5.409-8.295-16.59-12.936-12.486-18.194-20.376-5.714-8.569-4.333-22.538 8.381-31.053zm29.403 32.469c.499 2.732 5.199 3.514 8.357 2.939 3.158-.577 8.473-3.832 7.974-6.563-.499-2.732-6.62-3.902-9.778-3.325-3.155.577-7.051 4.22-6.553 6.949z" fill="#E81A5A"/><path d="M116.86 245.878s-4.908-70.272 5.541-80.722" stroke="#E81A5A" stroke-width="2" stroke-miterlimit="10"/><path d="M1 247.1h136.663" stroke="#fff" stroke-width="2" stroke-miterlimit="10" stroke-linecap="round"/><path d="M105.767 247.1a3.54 3.54 0 003.531-3.531v-5.065a3.54 3.54 0 00-3.531-3.531 3.539 3.539 0 00-3.531 3.531v5.065a3.545 3.545 0 003.531 3.531zm-75.54 0a3.54 3.54 0 003.532-3.531v-5.065a3.54 3.54 0 00-3.531-3.531 3.539 3.539 0 00-3.532 3.531v5.065a3.545 3.545 0 003.532 3.531z" fill="#A67EE5" stroke="#fff" stroke-width="2" stroke-miterlimit="10"/><path d="M24.79 238.504h74.503c6.242 0 11.348-5.106 11.348-11.348v-66.081c0-6.242-5.106-11.348-11.348-11.348H24.79c-6.242 0-11.348 5.106-11.348 11.348v66.081c0 6.242 5.106 11.348 11.348 11.348z" fill="#A67EE5" stroke="#fff" stroke-width="2" stroke-miterlimit="10"/><path d="M86.975 158.646v44.961m-35.287-44.961v44.961" stroke="#fff" stroke-width="2" stroke-miterlimit="10" stroke-linecap="round"/><path d="M53.13 137.368h32.403a4.086 4.086 0 014.078 4.078v16.007c0 .663-.53 1.193-1.194 1.193h-2.702c-.663 0-1.193-.53-1.193-1.193v-14.382c0-.696-.572-1.268-1.269-1.268H55.402c-.697 0-1.269.572-1.269 1.268v14.382c0 .663-.53 1.193-1.193 1.193h-2.702c-.664 0-1.194-.53-1.194-1.193v-16.007a4.098 4.098 0 014.086-4.078z" fill="#A67EE5" stroke="#fff" stroke-width="2" stroke-miterlimit="10"/><path d="M39.213 238.504h74.503c6.242 0 11.348-5.106 11.348-11.348v-66.081c0-6.242-5.106-11.348-11.348-11.348H39.213c-6.242 0-11.348 5.106-11.348 11.348v66.081c.008 6.242 5.115 11.348 11.348 11.348z" fill="#A67EE5" stroke="#fff" stroke-width="2" stroke-miterlimit="10"/><path d="M108.096 170.641H44.841m63.255 23.475H44.841m63.255 23.475H44.841" stroke="#fff" stroke-width="2" stroke-miterlimit="10" stroke-linecap="round"/><path d="M21.996 171.892h.672v44.455h-.672a3.527 3.527 0 01-3.514-3.514v-37.418a3.519 3.519 0 013.514-3.523z" fill="#A67EE5" stroke="#fff" stroke-width="2" stroke-miterlimit="10"/><path d="M69.336 137.078L13.749 57.245m55.587 79.833L50.8 57.245m37.061 0l-18.526 79.833m55.579-79.833l-55.58 79.833" stroke="#fff" stroke-width="2" stroke-miterlimit="10" stroke-linecap="round" stroke-linejoin="round"/><path d="M124.915 58.074a.831.831 0 01-.829-.829c0-6.3-7.941-11.422-17.698-11.422-9.557 0-17.498 5.023-17.689 11.19l-.008.232a.831.831 0 01-.829.829.831.831 0 01-.829-.829c0-6.3-7.94-11.422-17.697-11.422-9.757 0-17.698 5.122-17.698 11.422a.831.831 0 01-.828.829.831.831 0 01-.83-.829l-.008-.24c-.199-6.168-8.131-11.182-17.689-11.182-9.756 0-17.697 5.122-17.697 11.422a.831.831 0 01-.829.829.831.831 0 01-.829-.829C12.92 26.135 38.227.829 69.328.829c31.109 0 56.416 25.307 56.416 56.416a.826.826 0 01-.829.829z" fill="#F7396B"/><path d="M69.336 1.658c30.703 0 55.587 24.884 55.587 55.587 0-6.764-8.297-12.251-18.526-12.251-10.105 0-18.311 5.346-18.518 11.994 0 .083-.008.174-.008.257 0-6.764-8.298-12.251-18.527-12.251S50.801 50.48 50.801 57.245c0-.091-.008-.174-.008-.265-.216-6.64-8.422-11.986-18.518-11.986-10.237 0-18.526 5.487-18.526 12.251 0-30.703 24.884-55.587 55.587-55.587zm0-1.658C37.77 0 12.09 25.68 12.09 57.245c0 .912.746 1.658 1.658 1.658.912 0 1.658-.746 1.658-1.658 0-5.844 7.568-10.594 16.868-10.594 9.11 0 16.678 4.659 16.86 10.378l.008.133v.083a1.657 1.657 0 103.316 0c0-5.844 7.568-10.594 16.869-10.594 9.3 0 16.868 4.75 16.868 10.594 0 .912.746 1.658 1.658 1.658.912 0 1.658-.746 1.658-1.658v-.075l.008-.132c.182-5.728 7.742-10.387 16.86-10.387 9.301 0 16.869 4.75 16.869 10.594 0 .912.746 1.658 1.657 1.658.912 0 1.658-.746 1.658-1.658C126.573 25.68 100.893 0 69.336 0z" fill="#fff"/><path d="M69.336 1.658c9.922 0 18.02 20.897 18.543 55.33.207-6.648 8.413-11.994 18.518-11.994 10.237 0 18.526 5.487 18.526 12.251-.008-30.703-24.892-55.587-55.587-55.587z" fill="#E81A5A"/><path d="M69.328 1.658c-30.695 0-55.58 24.884-55.58 55.587 0-6.764 8.298-12.251 18.527-12.251 10.096 0 18.303 5.346 18.518 11.986.522-34.425 8.613-55.322 18.535-55.322z" fill="#FE6183"/><path d="M69.336 1.658c-9.93 0-18.02 20.897-18.543 55.322 0 .09.008.174.008.265 0-6.764 8.298-12.251 18.527-12.251 10.228 0 18.526 5.487 18.526 12.251 0-.091.008-.174.008-.257-.514-34.433-8.604-55.33-18.526-55.33z" fill="#F7396B"/><path d="M176.796 201.401a2.15 2.15 0 01.549 2.172c-1.06 3.426-4.58 12.854-12.101 16.337-5.134 2.377-8.326-2.697-10.923.769-2.654 3.539 2.103 5.034 6.916 4.305 1.877-.285 3.211 1.775 2.141 3.343-2.101 3.076-5.771 6.521-11.725 6.671-10.845.269-12.553-11.584-14.569-10.186-2.722 1.885 1.269 6.548 4.386 9.573 1.325 1.285.54 3.531-1.297 3.706-8.763.839-19.719-3.51-19.794-15-.083-12.937-4.251-11.797-5.115-18.356-.906-6.881 3.883-14.876 13.744-16.686 1.762-.322 3.128 1.514 2.313 3.112-2.412 4.732-5.959 12.606-2.824 12.563 3.461-.048-1.578-22.578 28.432-15.263 1.584.384 2.181 2.329 1.089 3.539l-.099.113c-1.517 1.704.296 4.321 2.406 3.45 3.663-1.517 9.165-1.272 16.471 5.838z" fill="#FE6183"/><path d="M99 245.886s3.48-30.113 21.701-30.113" stroke="#FE6183" stroke-width="2" stroke-miterlimit="10"/></symbol><symbol id="prize3-mob"><path d="M75.866 45.73a2.141 2.141 0 100-4.281 2.141 2.141 0 000 4.282zm9.915 32.543c1.064 0 1.927-.958 1.927-2.14s-.863-2.142-1.927-2.142-1.927.959-1.927 2.141.863 2.141 1.927 2.141zm-18.837 3.854H11.275c-2.472 0-4.495-1.976-4.495-4.39V67.14h64.657v10.597c0 2.417-2.021 4.39-4.493 4.39z" fill="#A67EE5" stroke="#fff" stroke-miterlimit="10"/><path d="M80.676 82.127h-55.3c-2.456 0-4.466-1.976-4.466-4.39V67.14h64.23v10.597c0 2.417-2.008 4.39-4.463 4.39z" fill="#A67EE5" stroke="#fff" stroke-miterlimit="10"/><path d="M70.737 37.595H5.617c-2.472 0-4.495 2.015-4.495 4.476v22.07a3 3 0 003 3H75.23V42.07c0-2.461-2.021-4.476-4.493-4.476zm-9.5 38.966h-13c-.898 0-1.636-.705-1.636-1.567v-4.398c0-.254.214-.458.478-.458h1.084c.264 0 .478.204.478.458v3.776c0 .266.227.486.508.486h11.174a.5.5 0 00.508-.486v-3.776c0-.254.214-.458.479-.458h1.083c.265 0 .479.204.479.458v4.398c0 .86-.736 1.566-1.637 1.566z" fill="#A67EE5" stroke="#fff" stroke-miterlimit="10"/><path d="M35.897 64.571H32.47v4.71h3.426v-4.71zm41.106 0h-3.425v4.71h3.425v-4.71zm8.136 13.135V73.99h-3.914c-1.15 0-2.081.977-2.081 2.183v5.953h1.78c2.319 0 4.215-1.989 4.215-4.421zM17.977 71.85h-7.835a.367.367 0 01-.365-.37v-.971c0-.206.163-.371.365-.371h7.835c.201 0 .364.165.364.37v.971a.367.367 0 01-.365.371z" fill="#A67EE5" stroke="#fff" stroke-miterlimit="10"/><path d="M20.657 33.172v34.392" stroke="#fff" stroke-miterlimit="10" stroke-linecap="round"/><path d="M6.764 67.132V43.429a5.829 5.829 0 015.831-5.828v0" stroke="#fff"/><path d="M20.208 31.892l-.842 1.461a.518.518 0 00.45.777h1.686c.4 0 .65-.433.45-.777l-.843-1.461a.522.522 0 00-.9 0z" fill="#fff"/><path d="M11.49 24.854c2.516 4.234 5.705 6.72 9.04 6.72 3.614 0 6.827-2.942 9.096-6.579 2.286-3.664 3.735-8.217 3.735-11.771C33.36 6.269 27.659.62 20.657.62 13.656.62 7.954 6.27 7.954 13.224c0 3.474 1.394 8.025 3.536 11.63z" fill="#3B7BF2" stroke="#fff"/><path d="M16.324 13.144C16.324 6.438 18.264 1 20.657 1 13.92 1 8.454 6.438 8.454 13.144s5.334 18.05 12.072 18.05l.063-.003c-2.384-.071-4.265-11.36-4.265-18.047z" fill="#76ABFF"/><path d="M32.86 13.144C32.86 6.438 27.397 1 20.658 1c2.393 0 4.334 5.438 4.334 12.144 0 6.664-1.962 17.896-4.334 18.04 6.68-.144 12.204-11.376 12.204-18.04z" fill="#1553B7"/><path d="M20.61 31.194c.015 0 .03-.006.048-.006-.024 0-.045.003-.07.003l.022.003z" fill="#3B7BF2"/><path d="M24.99 13.144C24.99 6.438 23.05 1 20.658 1c-2.393 0-4.334 5.438-4.334 12.144 0 6.685 1.882 17.976 4.266 18.047.024 0 .044-.003.068-.003 2.372-.148 4.334-11.38 4.334-18.044z" fill="#3B7BF2"/><path d="M17.88 12.094c-1.325 0-2.21.873-2.21 2.198s.885 2.198 2.21 2.198c1.316 0 2.198-.873 2.198-2.198 0-1.328-.885-2.198-2.198-2.198zm0 3.08c-.718 0-1.183-.359-1.183-.885s.468-.885 1.183-.885c.706 0 1.183.359 1.183.885 0 .53-.48.885-1.183.885zm5.477-3.08c.554 0 .882.622.566 1.08l-5.145 7.465a.689.689 0 01-1.133-.783l5.145-7.465a.683.683 0 01.567-.297zm.57 4.446c-1.325-.012-2.199.873-2.21 2.198 0 1.325.885 2.198 2.21 2.198s2.198-.873 2.198-2.198-.873-2.198-2.198-2.198zm0 3.08c-.719 0-1.183-.359-1.183-.885 0-.539.467-.885 1.183-.885.718 0 1.182.346 1.182.885 0 .53-.467.885-1.182.885z" fill="#fff"/><path d="M63.968 30.08C53.532 44.13 48.46 66.454 48.46 66.454" stroke="#3B7BF2" stroke-miterlimit="10" stroke-linecap="round" stroke-linejoin="round"/><path d="M70.916 26.64c-2.834 3.251-7.435 3.877-7.435 3.877s-.006-4.643 2.828-7.89c2.834-3.247 7.434-3.877 7.434-3.877s.007 4.643-2.827 7.89z" fill="#76ABFF"/><path d="M59.03 31.107c1.167 4.15-.827 8.344-.827 8.344s-3.886-2.54-5.054-6.69c-1.167-4.15.827-8.343.827-8.343s3.886 2.539 5.054 6.69z" fill="#3B7BF2"/><path d="M66.543 40.275c-4.15 1.168-8.34-.827-8.34-.827s2.539-3.886 6.69-5.054c4.15-1.167 8.343.827 8.343.827s-2.542 3.89-6.693 5.054z" fill="#3B7BF2"/><path d="M53.432 42.36c1.475 4.054-.204 8.38-.204 8.38s-4.065-2.24-5.537-6.293c-1.474-4.054.204-8.38.204-8.38s4.065 2.244 5.537 6.294zm8.176 8.584c-4.053 1.475-8.38-.203-8.38-.203s2.241-4.066 6.294-5.537c4.053-1.472 8.38.203 8.38.203s-2.24 4.066-6.294 5.537z" fill="#1553B7"/><path d="M40.438 45.783c5.35 7.985 7.95 20.672 7.95 20.672" stroke="#3B7BF2" stroke-miterlimit="10" stroke-linecap="round" stroke-linejoin="round"/><path d="M34.594 44.132c2.833 3.25 7.434 3.877 7.434 3.877s.006-4.643-2.828-7.89c-2.834-3.248-7.434-3.877-7.434-3.877s-.006 4.643 2.828 7.89zm10.628 2.999c-1.475 4.053.203 8.38.203 8.38s4.066-2.241 5.537-6.294c1.475-4.053-.204-8.38-.204-8.38s-4.065 2.244-5.536 6.294zm-8.177 8.584c4.054 1.474 8.38-.204 8.38-.204s-2.24-4.065-6.294-5.537c-4.053-1.472-8.38.204-8.38.204s2.241 4.065 6.294 5.537z" fill="#3B7BF2"/></symbol><symbol id="prize3"><path stroke="#fff" stroke-width="2" stroke-linecap="round" stroke-linejoin="round" d="M1 252h257.521"/><path d="M208.691 155.111a5.691 5.691 0 100-11.383 5.691 5.691 0 000 11.383zm26.357 86.506c2.829 0 5.123-2.548 5.123-5.691s-2.294-5.691-5.123-5.691c-2.828 0-5.122 2.548-5.122 5.691s2.294 5.691 5.122 5.691zm-50.073 10.245H36.99c-6.57 0-11.949-5.253-11.949-11.67v-28.169h171.876v28.169c0 6.424-5.371 11.67-11.942 11.67z" fill="#A67EE5" stroke="#fff" stroke-width="2" stroke-miterlimit="10"/><path d="M221.478 251.862H74.473c-6.526 0-11.87-5.253-11.87-11.67v-28.169h170.738v28.169c0 6.424-5.336 11.67-11.863 11.67zm-26.42-118.378H21.948c-6.57 0-11.948 5.355-11.948 11.897v53.642c0 7.18 5.82 13 13 13h184v-66.642c0-6.542-5.371-11.897-11.942-11.897z" fill="#A67EE5" stroke="#fff" stroke-width="2" stroke-miterlimit="10"/><path d="M169.801 237.065H135.25c-2.389 0-4.351-1.872-4.351-4.165v-11.691c0-.674.568-1.218 1.272-1.218h2.88c.703 0 1.272.544 1.272 1.218v10.037c0 .708.604 1.293 1.351 1.293h29.703c.739 0 1.351-.578 1.351-1.293v-10.037c0-.674.568-1.218 1.272-1.218h2.88c.703 0 1.272.544 1.272 1.218V232.9c0 2.286-1.955 4.165-4.351 4.165zm-67.359-31.871h-9.106v12.52h9.106v-12.52zm109.272 0h-9.106v12.52h9.106v-12.52zm21.627 34.915v-9.874h-10.404c-3.055 0-5.531 2.598-5.531 5.803v15.824h4.732c6.164 0 11.203-5.286 11.203-11.753zM54.805 224.544H33.978a.977.977 0 01-.969-.986v-2.581c0-.546.433-.986.97-.986h20.826c.536 0 .97.44.97.986v2.581a.977.977 0 01-.97.986z" fill="#A67EE5" stroke="#fff" stroke-width="2" stroke-miterlimit="10"/><path d="M135.486 200.8s8.302-74.587 39.714-90.018" stroke="#fff" stroke-width="2" stroke-miterlimit="10" stroke-linecap="round" stroke-linejoin="round"/><path d="M172.715 110.116l9.266-24.486a21.931 21.931 0 018.718 2.971 7.885 7.885 0 015.346-1.31c4.322.508 7.408 4.43 6.9 8.752a7.818 7.818 0 01-2.521 4.887 22.002 22.002 0 01.851 9.178l-25.965 3.299c-1.826.245-3.25-1.564-2.595-3.291z" fill="#3B7BF2"/><path d="M133 210.633s6.89-44.681 37.946-56.528" stroke="#fff" stroke-width="2" stroke-miterlimit="10" stroke-linecap="round" stroke-linejoin="round"/><path d="M165.608 155.036l9.016-16.475c2.3.567 4.368 1.583 6.122 2.926a5.924 5.924 0 014.039-.424c3.126.768 5.031 3.832 4.264 6.849a5.53 5.53 0 01-2.291 3.23 15.22 15.22 0 01-.207 6.58l-19.339-.108c-1.364.001-2.241-1.413-1.604-2.578z" fill="#3B7BF2"/><path d="M62.409 89.713v122.31" stroke="#fff" stroke-width="2" stroke-miterlimit="10" stroke-linecap="round"/><path d="M233.961 106.796a4.892 4.892 0 013.798-4.766v-.005l21.067-5.404c-7.78 14.842-19.176 15.075-19.97 15.075h-.042a4.901 4.901 0 01-4.853-4.9z" fill="#fff"/><path d="M217 92.858l10.76.047c.042-.133 1.026-2.823 4.415-2.904 1.473-.033 2.661.575 3.478 1.759a13.257 13.257 0 011.364 2.585c.632 1.573 4.045 15.802 5.889 19.157 1.102 2.01 4.391 7.162 4.391 7.162.204.347.314.742.314 1.145v9.168s-3.109-1.079-3.109-3.911v-6.53c-1.915.271-6.045-1.649-8.331-2.88-3.15-1.697-5.113-3.702-6.363-6.763-1.231-3.027-1.231-6.088-.109-9.158.347-.946.855-1.834.793-2.913-.066-1.14-1.387-2.719-2.181-4.054L217 92.858z" fill="#fff"/><path d="M25 212v-63.511c0-8.284 6.716-14.989 15-14.989h.5" stroke="#fff" stroke-width="2"/><path d="M96.53 127.163c24.098 32.446 35.81 83.999 35.81 83.999" stroke="#3B7BF2" stroke-width="2" stroke-miterlimit="10" stroke-linecap="round" stroke-linejoin="round"/><path d="M80.485 119.221c6.544 7.506 17.168 8.953 17.168 8.953s.014-10.722-6.53-18.221c-6.544-7.5-17.168-8.953-17.168-8.953s-.014 10.722 6.53 18.221z" fill="#76ABFF"/><path d="M107.933 129.536c-2.697 9.584 1.91 19.267 1.91 19.267s8.973-5.863 11.67-15.447c2.696-9.585-1.91-19.268-1.91-19.268s-8.974 5.863-11.67 15.448z" fill="#3B7BF2"/><path d="M90.582 150.706c9.585 2.696 19.261-1.91 19.261-1.91s-5.864-8.974-15.448-11.67c-9.584-2.696-19.267 1.91-19.267 1.91s5.87 8.981 15.454 11.67z" fill="#3B7BF2"/><path d="M120.86 155.523c-3.406 9.36.47 19.351.47 19.351s9.388-5.175 12.786-14.534c3.406-9.36-.47-19.352-.47-19.352s-9.388 5.182-12.786 14.535zm-18.881 19.822c9.359 3.405 19.351-.471 19.351-.471s-5.175-9.388-14.535-12.786c-9.36-3.398-19.351.47-19.351.47s5.175 9.388 14.535 12.787z" fill="#1553B7"/><path d="M61.336 84.874l-2.182 3.787a1.343 1.343 0 001.163 2.013h4.373c1.035 0 1.685-1.123 1.163-2.013l-2.182-3.787c-.53-.891-1.821-.891-2.335 0z" fill="#fff"/><path d="M62.147 85.01c-8.48 0-16.921-6.403-23.773-18.028-5.817-9.869-9.572-22.297-9.572-31.668 0-18.582 15.116-33.698 33.698-33.698s33.698 15.116 33.698 33.698c0 19.168-15.59 49.696-34.051 49.696z" fill="#3B7BF2"/><path d="M62.5 2.419c18.165 0 32.895 14.73 32.895 32.895 0 18.165-15.083 48.894-33.248 48.894s-32.542-30.73-32.542-48.894c0-18.165 14.73-32.895 32.895-32.895zm0-1.605C43.477.814 28 16.29 28 35.314c0 9.507 3.803 22.096 9.676 32.069 7.004 11.882 15.685 18.421 24.463 18.421 8.793 0 17.603-6.539 24.808-18.405C93.053 57.354 97 44.757 97 35.314 97 16.29 81.523.814 62.5.814z" fill="#fff"/><path d="M50.818 35.394C50.818 17.23 56.05 2.5 62.5 2.5c-18.165 0-32.895 14.73-32.895 32.895 0 18.165 14.377 48.894 32.542 48.894.056 0 .112-.008.168-.008-6.426-.193-11.497-30.77-11.497-48.886z" fill="#76ABFF"/><path d="M95.395 35.394C95.395 17.23 80.665 2.5 62.5 2.5c6.45 0 11.682 14.73 11.682 32.895 0 18.052-5.287 48.477-11.682 48.87 18.004-.393 32.895-30.817 32.895-48.87z" fill="#1553B7"/><path d="M62.372 84.288c.04 0 .08-.016.129-.016-.065 0-.121.008-.186.008.016 0 .04.008.057.008z" fill="#3B7BF2"/><path d="M74.182 35.394C74.182 17.23 68.95 2.5 62.5 2.5S50.818 17.23 50.818 35.395c0 18.109 5.07 48.693 11.497 48.886.064 0 .12-.008.185-.008 6.394-.401 11.682-30.826 11.682-48.878z" fill="#3B7BF2"/><path d="M55.303 28.358c-3.434 0-5.729 2.262-5.729 5.696 0 3.434 2.295 5.697 5.729 5.697 3.41 0 5.696-2.263 5.696-5.697 0-3.442-2.294-5.696-5.696-5.696zm0 7.983c-1.862 0-3.065-.93-3.065-2.295 0-1.364 1.211-2.294 3.065-2.294 1.83 0 3.065.93 3.065 2.294 0 1.372-1.244 2.295-3.065 2.295zm14.193-7.983c1.437 0 2.287 1.613 1.469 2.8L57.63 50.502c-.337.481-.882.77-1.468.77-1.436 0-2.287-1.612-1.468-2.8l13.334-19.344c.33-.481.875-.77 1.468-.77zm1.477 11.521c-3.435-.032-5.697 2.263-5.73 5.697 0 3.434 2.296 5.696 5.73 5.696s5.696-2.262 5.696-5.696c0-3.434-2.263-5.697-5.697-5.697zm0 7.983c-1.862 0-3.065-.93-3.065-2.294 0-1.396 1.211-2.295 3.065-2.295 1.86 0 3.064.899 3.064 2.295 0 1.372-1.211 2.294-3.065 2.294z" fill="#fff"/><path d="M138.549 187.774c2.304 9.105-2.272 18.118-2.272 18.118s-8.317-5.741-10.628-14.847c-2.305-9.105 2.271-18.118 2.271-18.118s8.324 5.748 10.629 14.847z" fill="#3B7BF2"/><path d="M154.389 208.164c-9.106 2.304-18.118-2.272-18.118-2.272s5.741-8.317 14.847-10.628c9.105-2.311 18.118 2.271 18.118 2.271s-5.742 8.324-14.847 10.629z" fill="#3B7BF2"/><path d="M143.323 194.674c-4.927 7.126-7.443 11.126-10.311 16.615" stroke="#3B7BF2" stroke-width="2" stroke-miterlimit="10" stroke-linecap="round" stroke-linejoin="round"/><path d="M158.448 187.185c-6.172 7.079-16.191 8.443-16.191 8.443s-.013-10.112 6.159-17.185c6.172-7.079 16.191-8.443 16.191-8.443s.013 10.112-6.159 17.185z" fill="#76ABFF"/></symbol><symbol id="secondary-award-from" viewBox="0 0 319.75 276"><path d="M249.34 152.82a2 2 0 013.15 2c-1 7-2.07 20.33 4.85 19.4 4.94-.66-16.65-31.53 19.32-38.16a2 2 0 012.18 2.89c-1.32 2.74-2.83 6.61-2.73 9.9a2 2 0 003.71 1c4.1-6.15 15.1-17.86 36.59-10.7a2 2 0 011.35 1.54c.93 4.8 4.13 23.24-.29 28.72-5.09 6.31-15 4.14-16.18 10.25-1.3 6.91 7.51 4.82 13.42-.22a2 2 0 013.32 1.64c-.25 5.45-2.18 14-11.12 18.69-13.78 7.21-23.48-7-25.19-3.88-2.59 4.66 7.94 8.47 13.78 10.18a2 2 0 01.61 3.59c-10.52 7.74-29.13 10.28-37-5.41-8.3-16.59-12.93-12.49-18.19-20.38-5.71-8.57-4.33-22.54 8.38-31.05m29.4 32.47c.5 2.73 5.2 3.51 8.35 2.94s8.47-3.83 8-6.56-6.62-3.9-9.78-3.33-7.05 4.22-6.55 6.95" fill="#e81a5a"/><path d="M248.87 273.88s-4.91-70.27 5.54-80.72" fill="none" stroke="#e81a5a" stroke-miterlimit="10" stroke-width="2"/><path fill="none" stroke="#fff" stroke-linecap="round" stroke-miterlimit="10" stroke-width="2" d="M51.31 23.72h39.77M71.09 13.45H43.73a12.4 12.4 0 10-24.8 0H1m78.35 0h22.2M258 91.28h39.78M286.05 81h22.2"/><path d="M221.64 65h-19.45a35.49 35.49 0 00-68-13.69A26.34 26.34 0 00121.3 48a26.72 26.72 0 00-24.8 17H81.35a10.5 10.5 0 000 21h140.3a10.5 10.5 0 000-21" fill="#fff"/><path d="M308.79 229.4a2.14 2.14 0 01.55 2.17c-1.06 3.43-4.58 12.85-12.1 16.34-5.13 2.38-8.33-2.7-10.92.77s2.1 5 6.92 4.31a2.16 2.16 0 012.14 3.34 14.34 14.34 0 01-11.73 6.67c-10.84.27-12.55-11.58-14.57-10.19-2.72 1.89 1.27 6.55 4.39 9.57a2.16 2.16 0 01-1.3 3.71c-8.76.84-19.72-3.51-19.8-15-.08-12.94-4.25-11.8-5.11-18.35-.91-6.88 3.88-14.88 13.74-16.69a2.16 2.16 0 012.31 3.11c-2.41 4.73-6 12.6-2.82 12.56 3.46 0-1.58-22.58 28.43-15.26a2.16 2.16 0 011.09 3.54l-.1.11a2.16 2.16 0 002.41 3.45c3.66-1.52 9.16-1.27 16.47 5.84" fill="#fe6183"/><path d="M231 273.88s3.48-30.11 21.7-30.11" fill="none" stroke="#fe6183" stroke-miterlimit="10" stroke-width="2"/><path fill="none" stroke="#fff" stroke-width="2" d="M27 275h278"/></symbol><symbol id="secondary-award-to" viewBox="0 0 187.75 248.1"><path d="M117.34 124.81a2 2 0 013.15 2c-1 7-2.07 20.33 4.85 19.4 4.94-.66-16.65-31.53 19.32-38.16a2 2 0 012.18 2.88c-1.32 2.74-2.83 6.62-2.73 9.9a2 2 0 003.71 1c4.1-6.15 15.1-17.86 36.59-10.7a2 2 0 011.35 1.54c.93 4.8 4.13 23.24-.29 28.72-5.09 6.31-15 4.14-16.18 10.25-1.3 6.91 7.51 4.82 13.42-.22a2 2 0 013.32 1.64c-.25 5.45-2.18 14-11.12 18.69-13.78 7.21-23.48-7-25.19-3.88-2.59 4.66 7.94 8.47 13.78 10.18a2 2 0 01.61 3.59c-10.52 7.74-29.13 10.28-37-5.41-8.3-16.59-12.93-12.49-18.19-20.38-5.71-8.57-4.33-22.54 8.38-31.05m29.4 32.47c.5 2.73 5.2 3.51 8.35 2.94s8.47-3.83 8-6.56-6.62-3.9-9.78-3.33-7.05 4.22-6.55 6.95" fill="#e81a5a"/><path d="M116.87 245.87s-4.91-70.27 5.54-80.72" fill="none" stroke="#e81a5a" stroke-miterlimit="10" stroke-width="2"/><path d="M105.76 247.09a3.54 3.54 0 003.53-3.53v-5.07a3.53 3.53 0 10-7.06 0v5.07a3.55 3.55 0 003.53 3.53" fill="#a67ee5"/><path d="M105.76 247.09a3.54 3.54 0 003.53-3.53v-5.07a3.53 3.53 0 10-7.06 0v5.07a3.55 3.55 0 003.53 3.53z" fill="none" stroke="#fff" stroke-miterlimit="10" stroke-width="2"/><path d="M30.22 247.09a3.54 3.54 0 003.53-3.53v-5.07a3.53 3.53 0 10-7.06 0v5.07a3.54 3.54 0 003.53 3.53" fill="#a67ee5"/><path d="M30.22 247.09a3.54 3.54 0 003.53-3.53v-5.07a3.53 3.53 0 10-7.06 0v5.07a3.54 3.54 0 003.53 3.53z" fill="none" stroke="#fff" stroke-miterlimit="10" stroke-width="2"/><path d="M24.79 238.5h74.5a11.38 11.38 0 0011.35-11.35v-66.08a11.38 11.38 0 00-11.35-11.35h-74.5a11.38 11.38 0 00-11.35 11.35v66.08a11.38 11.38 0 0011.35 11.35" fill="#a67ee5"/><rect x="13.44" y="149.73" width="97.2" height="88.78" rx="11.35" ry="11.35" fill="none" stroke="#fff" stroke-miterlimit="10" stroke-width="2"/><path d="M53.13 137.36h32.4a4.09 4.09 0 014.08 4.08v16a1.19 1.19 0 01-1.19 1.19h-2.7a1.19 1.19 0 01-1.19-1.19v-14.37a1.27 1.27 0 00-1.27-1.27H55.4a1.27 1.27 0 00-1.27 1.27v14.38a1.19 1.19 0 01-1.19 1.19h-2.7a1.19 1.19 0 01-1.19-1.19v-16a4.1 4.1 0 014.09-4.08" fill="#a67ee5"/><path d="M53.13 137.36h32.4a4.09 4.09 0 014.08 4.08v16a1.19 1.19 0 01-1.19 1.19h-2.7a1.19 1.19 0 01-1.19-1.19v-14.37a1.27 1.27 0 00-1.27-1.27H55.4a1.27 1.27 0 00-1.27 1.27v14.38a1.19 1.19 0 01-1.19 1.19h-2.7a1.19 1.19 0 01-1.19-1.19v-16a4.1 4.1 0 014.08-4.09z" fill="none" stroke="#fff" stroke-miterlimit="10" stroke-width="2"/><path d="M39.21 238.5h74.5a11.38 11.38 0 0011.35-11.35v-66.08a11.38 11.38 0 00-11.35-11.35h-74.5a11.38 11.38 0 00-11.34 11.35v66.08a11.39 11.39 0 0011.35 11.35" fill="#a67ee5"/><path d="M39.21 238.5h74.5a11.38 11.38 0 0011.35-11.35v-66.08a11.38 11.38 0 00-11.35-11.35h-74.5a11.38 11.38 0 00-11.34 11.35v66.08a11.39 11.39 0 0011.34 11.35z" fill="none" stroke="#fff" stroke-miterlimit="10" stroke-width="2"/><path fill="none" stroke="#fff" stroke-linecap="round" stroke-miterlimit="10" stroke-width="2" d="M108.1 170.64H44.84m63.26 23.48H44.84m63.26 23.47H44.84"/><path d="M21.99 171.89h.67v44.46h-.67a3.53 3.53 0 01-3.52-3.51v-37.43a3.52 3.52 0 013.52-3.52" fill="#a67ee5"/><path d="M21.99 171.89h.67v44.46h-.67a3.53 3.53 0 01-3.52-3.51v-37.43a3.52 3.52 0 013.52-3.52z" fill="none" stroke="#fff" stroke-miterlimit="10" stroke-width="2"/><path fill="none" stroke="#fff" stroke-linecap="round" stroke-linejoin="round" stroke-width="2" d="M69.34 137.08L13.75 57.25m55.59 79.83L50.8 57.25m37.06 0l-18.52 79.83m55.58-79.83l-55.58 79.83"/><path d="M69.33 1.65a55.58 55.58 0 0155.54 55.56c0-6.76-8.3-12.25-18.53-12.25s-18.31 5.35-18.52 12v.26c0-6.76-8.3-12.25-18.53-12.25s-18.54 5.49-18.54 12.25v-.26c-.22-6.64-8.42-12-18.52-12s-18.52 5.49-18.52 12.25A55.58 55.58 0 0169.3 1.62m0-1.66a57.31 57.31 0 00-57.21 57.25 1.66 1.66 0 103.32 0c0-5.84 7.57-10.59 16.87-10.59 9.11 0 16.68 4.66 16.86 10.38v.21a1.66 1.66 0 003.32 0c0-5.84 7.57-10.59 16.87-10.59S86.2 51.37 86.2 57.21a1.66 1.66 0 003.32 0V57c.18-5.73 7.74-10.39 16.86-10.39 9.3 0 16.87 4.75 16.87 10.59a1.66 1.66 0 103.32 0A57.3 57.3 0 0069.34-.05" fill="#fff"/><path d="M69.33 1.65c9.92 0 18 20.9 18.54 55.33.21-6.65 8.41-12 18.52-12s18.48 5.5 18.48 12.23A55.59 55.59 0 0069.28 1.62" fill="#e81a5a"/><path d="M69.32 1.65a55.58 55.58 0 00-55.58 55.56c0-6.76 8.3-12.25 18.52-12.25s18.3 5.35 18.52 12c.52-34.43 8.61-55.32 18.53-55.32" fill="#fe6183"/><path d="M69.33 1.65c-9.93 0-18 20.9-18.54 55.32v.26c0-6.76 8.3-12.25 18.53-12.25s18.55 5.5 18.55 12.23v-.26c-.51-34.43-8.6-55.33-18.52-55.33" fill="#f7396b"/><path d="M176.79 201.4a2.15 2.15 0 01.55 2.17c-1.06 3.43-4.58 12.85-12.1 16.34-5.14 2.38-8.33-2.7-10.92.77s2.1 5 6.92 4.31a2.16 2.16 0 012.14 3.34 14.34 14.34 0 01-11.73 6.67c-10.84.27-12.55-11.58-14.57-10.19-2.72 1.89 1.27 6.55 4.39 9.57a2.16 2.16 0 01-1.3 3.71c-8.76.84-19.72-3.51-19.8-15-.08-12.94-4.25-11.8-5.11-18.35-.91-6.88 3.88-14.88 13.74-16.69a2.16 2.16 0 012.31 3.11c-2.41 4.73-6 12.6-2.82 12.56 3.46 0-1.58-22.58 28.43-15.26a2.16 2.16 0 011.09 3.54l-.1.11a2.16 2.16 0 002.41 3.45c3.66-1.52 9.16-1.27 16.47 5.84" fill="#fe6183"/><path d="M99 245.88s3.48-30.11 21.7-30.11" fill="none" stroke="#fe6183" stroke-miterlimit="10" stroke-width="2"/><path fill="none" stroke="#fff" stroke-linecap="round" stroke-miterlimit="10" stroke-width="2" d="M1 247.1h136.66"/></symbol><symbol id="win-heading" viewBox="0 0 568.85 109.24"><path d="M13.9 22.94V90.5H.5v-84h72.4v84H59.42V22.94H13.9zM146.66 4.1c32.88 0 59.52 19.92 59.52 44.4s-26.64 44.4-59.52 44.4-59.52-19.92-59.52-44.4 26.64-44.4 59.52-44.4zm0 72.12c24.48 0 44.4-12.36 44.4-27.72s-19.92-27.84-44.4-27.84c-24.76 0-44.76 12.36-44.76 27.84s20 27.72 44.76 27.72zM285.26 6.5v16.44H233.9v14.4h25.32c25.44 0 34 11.16 34 26.52 0 15.6-8.52 26.64-34 26.64h-38.76v-84h64.8zm-30.48 68.52c15.12 0 23.52-2 23.52-11.52s-8.4-10.56-23.52-10.56H233.9v22.08h20.88zM369.37 6.5v16.44h-50.63V40.1h33.6v16.4h-33.6v17.56h50.64V90.5H305.3v-84h64.08zm10.92 102.24V74.06h7.44c4.56-4.68 7.8-18.36 8.76-56l.41-11.56h48.6v67.56h10v34.68h-14.73V90.5H394.9v18.24h-14.61zm51.72-34.68V22.94h-22.56v3.12c-.48 22.44-3.24 37.68-7.2 48h29.76zm29.64 16.44l28-84h27.12l28.08 84h-13.48l-7.8-23.52h-37.8l-7.8 23.52h-16.32zm56.64-40L504.9 10.34 491.41 50.5h26.88zm33.73 18.4L553.45.5h13.45l1.44 68.4h-16.32zm8.28 6.36c4.8 0 8 3.24 8 8.16a8.04 8.04 0 11-16.08 0c.03-4.92 3.27-8.16 8.07-8.16z" fill="none" stroke="currentColor"/></symbol></svg>