<svg width="15" height="15" fill="none" xmlns="http://www.w3.org/2000/svg"><path d="M11.02 0H4.198A3.729 3.729 0 00.471 3.723v6.827a3.724 3.724 0 003.727 3.723h6.822a3.725 3.725 0 003.727-3.723V3.723A3.73 3.73 0 0011.02 0zm0 12.485H4.198a1.936 1.936 0 01-1.934-1.934V3.724a1.93 1.93 0 011.934-1.927h6.822c1.067 0 1.934.864 1.934 1.927v6.827a1.937 1.937 0 01-1.934 1.934z" fill="currentColor"/><path d="M7.609 3.11a4.034 4.034 0 00-4.027 4.03 4.034 4.034 0 004.027 4.025 4.03 4.03 0 004.027-4.025 4.032 4.032 0 00-4.027-4.03zm0 6.259a2.232 2.232 0 11.001-4.46 2.232 2.232 0 01-.001 4.46z" fill="currentColor"/><path d="M11.357 2.36a.969.969 0 00-.964.964c0 .531.433.97.964.97a.972.972 0 00.965-.97.97.97 0 00-.965-.964z" fill="currentColor"/></svg>