<svg xmlns="http://www.w3.org/2000/svg" viewBox="0 0 259.52 72.94"><path d="M180.64 1H37.44a11.62 11.62 0 00-11.57 11.61v19.75H192.2V12.6A11.62 11.62 0 00180.64.99" fill="#a67ee5"/><path d="M180.64 1H37.44a11.62 11.62 0 00-11.57 11.61v19.75H192.2V12.6A11.62 11.62 0 00180.64 1z" fill="none" stroke="#fff" stroke-miterlimit="10" stroke-width="2"/><path d="M221.87 1H73.99a11.81 11.81 0 00-11.93 11.61v19.75h171.7V12.6A11.81 11.81 0 00221.83.99" fill="#a67ee5"/><path d="M221.87 1H73.99a11.81 11.81 0 00-11.93 11.61v19.75h171.7V12.6A11.81 11.81 0 00221.87 1z" fill="none" stroke="#fff" stroke-miterlimit="10" stroke-width="2"/><path d="M233.5 22.35a5.34 5.34 0 10-5.32-5.34 5.32 5.32 0 005.32 5.34" fill="#a67ee5"/><ellipse cx="233.5" cy="17.01" rx="5.31" ry="5.34" fill="none" stroke="#fff" stroke-miterlimit="10" stroke-width="2"/><path d="M232.38 12.6v9.75h-10.73a5.72 5.72 0 01-5.71-5.73V1h4.88a11.61 11.61 0 0111.56 11.61" fill="#a67ee5"/><path d="M232.38 12.6v9.75h-10.73a5.72 5.72 0 01-5.71-5.73V1h4.88a11.61 11.61 0 0111.56 11.6z" fill="none" stroke="#fff" stroke-miterlimit="10" stroke-width="2"/><path d="M235.05 61.56a5.72 5.72 0 10-5.12-5.69 5.43 5.43 0 005.12 5.69" fill="#a67ee5"/><ellipse cx="235.05" cy="55.87" rx="5.12" ry="5.69" fill="none" stroke="#fff" stroke-miterlimit="10" stroke-width="2"/><path d="M184.98 71.8h-148a11.85 11.85 0 01-11.95-11.67V31.94h171.89v28.17a11.84 11.84 0 01-11.94 11.67" fill="#a67ee5"/><path d="M184.98 71.8h-148a11.85 11.85 0 01-11.95-11.67V31.94h171.89v28.17a11.84 11.84 0 01-11.94 11.69z" fill="none" stroke="#fff" stroke-miterlimit="10" stroke-width="2"/><path d="M221.48 71.8h-147a11.81 11.81 0 01-11.87-11.67V31.94h170.73v28.17a11.79 11.79 0 01-11.86 11.67" fill="#a67ee5"/><path d="M221.48 71.8h-147a11.81 11.81 0 01-11.87-11.67V31.94h170.73v28.17a11.79 11.79 0 01-11.86 11.69z" fill="none" stroke="#fff" stroke-miterlimit="10" stroke-width="2"/><path d="M169.76 57.01h-34.51a4.27 4.27 0 01-4.35-4.16v-11.7a1.24 1.24 0 011.27-1.22h2.88a1.25 1.25 0 011.27 1.22v10a1.33 1.33 0 001.35 1.29h29.71a1.33 1.33 0 001.35-1.29v-10a1.24 1.24 0 011.27-1.22h2.88a1.25 1.25 0 011.27 1.22v11.69A4.27 4.27 0 01169.8 57" fill="#a67ee5"/><path d="M169.76 57.01h-34.51a4.27 4.27 0 01-4.35-4.16v-11.7a1.24 1.24 0 011.27-1.22h2.88a1.25 1.25 0 011.27 1.22v10a1.33 1.33 0 001.35 1.29h29.71a1.33 1.33 0 001.35-1.29v-10a1.24 1.24 0 011.27-1.22h2.88a1.25 1.25 0 011.27 1.22v11.69a4.27 4.27 0 01-4.39 4.17z" fill="none" stroke="#fff" stroke-miterlimit="10" stroke-width="2"/><path fill="#a67ee5" d="M93.34 25.14h9.1v12.52h-9.1z"/><path fill="none" stroke="#fff" stroke-miterlimit="10" stroke-width="2" d="M93.34 25.14h9.1v12.52h-9.1z"/><path fill="#a67ee5" d="M202.61 25.14h9.1v12.52h-9.1z"/><path fill="none" stroke="#fff" stroke-miterlimit="10" stroke-width="2" d="M202.61 25.14h9.1v12.52h-9.1z"/><path d="M233.34 60.05v-9.87h-10.4a5.67 5.67 0 00-5.53 5.8V71.8h4.73c6.16 0 11.2-5.29 11.2-11.75" fill="#a67ee5"/><path d="M233.34 60.05v-9.87h-10.4a5.67 5.67 0 00-5.53 5.8V71.8h4.73c6.16 0 11.2-5.28 11.2-11.75z" fill="none" stroke="#fff" stroke-miterlimit="10" stroke-width="2"/><path d="M54.76 44.48H33.98a1 1 0 01-1-1v-2.54a1 1 0 011-1h20.78a1 1 0 011 1v2.58a1 1 0 01-1 1" fill="#a67ee5"/><path d="M54.76 44.48H33.98a1 1 0 01-1-1v-2.54a1 1 0 011-1h20.78a1 1 0 011 1v2.58a1 1 0 01-1 .96z" fill="none" stroke="#fff" stroke-miterlimit="10" stroke-width="2"/><path fill="none" stroke="#fff" stroke-linecap="round" stroke-linejoin="round" stroke-width="2" d="M1 71.94h257.52"/></svg>