<svg width="95" height="73" fill="none" xmlns="http://www.w3.org/2000/svg"><path d="M88.503 25.5h-6.006c-3.321 0-5.997-2.585-5.997-5.694V7.194c0-3.11 2.676-5.694 5.997-5.694h6.006c3.321 0 5.997 2.585 5.997 5.694v12.612c0 3.107-2.676 5.694-5.997 5.694z" stroke="#fff"/><path d="M80.155 42.57h-26.09v-6.094h23.662a4.261 4.261 0 014.253 4.267 1.831 1.831 0 01-1.825 1.827zM48.867 69.69a2 2 0 01-1.977 2.3h-1.953a2 2 0 01-1.978-1.7l-2.104-13.864a2 2 0 011.978-2.3h1.953a2 2 0 011.977 1.7l2.104 13.865zm21.286.001a2 2 0 01-1.978 2.3h-1.953a2 2 0 01-1.977-1.7l-2.102-13.865a2 2 0 011.978-2.3h1.953a2 2 0 011.978 1.7l2.1 13.865z" fill="#A67EE5" stroke="#fff" stroke-miterlimit="10"/><path d="M82.031 47.999H66.382a2.403 2.403 0 01-2.373-2.05l-4.664-31.03a7.618 7.618 0 002.708-6.393c-.262-3.753-3.296-6.797-7.037-7.055a7.541 7.541 0 00-1.034 0H30.32l-.135 44.194 6.772 10.03 20.269 3.604a5.29 5.29 0 001.815.324h22.99c3.201 0 5.792-2.603 5.792-5.81 0-3.211-2.59-5.814-5.792-5.814z" fill="#A67EE5" stroke="#fff" stroke-miterlimit="10"/><path d="M39.316 45.954l-4.663-31.03a7.618 7.618 0 002.707-6.393c-.261-3.753-3.295-6.797-7.037-7.055-4.438-.306-8.133 3.215-8.133 7.602 0 .786.12 1.543.338 2.257l6.576 43.764a5.31 5.31 0 005.244 4.53h31.349c3.2 0 5.792-2.604 5.792-5.811 0-3.211-2.595-5.81-5.792-5.81H41.69a2.416 2.416 0 01-2.374-2.054z" fill="#A67EE5" stroke="#fff" stroke-miterlimit="10"/><path d="M58.144 42.57H27.22l-.914-6.094h29.41a4.261 4.261 0 014.253 4.267 1.831 1.831 0 01-1.825 1.827z" fill="#A67EE5" stroke="#fff" stroke-miterlimit="10"/><path d="M34.653 14.92h24.692" stroke="#fff" stroke-miterlimit="10" stroke-linecap="round"/><path d="M18.438 72.5c9.535 0 17.265-7.73 17.265-17.266 0-9.535-7.73-17.265-17.266-17.265-9.535 0-17.265 7.73-17.265 17.265 0 9.536 7.73 17.266 17.265 17.266z" fill="#36E69A" stroke="#fff"/><path d="M11.887 55.234c0-9.195 2.932-16.649 6.55-16.649-9.194 0-16.649 7.455-16.649 16.65s7.455 16.648 16.65 16.648c-3.62-.002-6.55-7.454-6.55-16.649z" fill="#068E4D"/><path d="M18.438 38.585c3.616 0 6.55 7.454 6.55 16.65s-2.932 16.648-6.55 16.648c9.194 0 16.649-7.454 16.649-16.649s-7.455-16.649-16.65-16.649z" fill="#36E69A"/><path d="M18.438 71.883c3.617 0 6.55-7.454 6.55-16.649s-2.933-16.649-6.55-16.649c-3.618 0-6.55 7.454-6.55 16.65 0 9.194 2.932 16.648 6.55 16.648z" fill="#25B774"/><path d="M13.234 53.328c0-2.393 3.102-3.297 5.131-3.297 2.392 0 5.276.904 5.276 3.204 0 2.086-2.42 1.994-3.407 2.575-.575.332-.916.934-.995 1.642-.056.49-.448.857-.914.857-.555 0-.983-.512-.917-1.096.115-1.021.75-2.05 2.394-2.555 1.45-.444 2-.597 2-1.134 0-.98-2.015-1.425-3.494-1.411-1.218 0-3.407.322-3.407 1.747v.007c0 .345-.281.613-.6.55l-.621-.12a.527.527 0 01-.416-.464 4.648 4.648 0 01-.03-.505zm4.219 6.868c0-.629.392-1.042.972-1.042s.972.415.972 1.042c0 .614-.392 1.042-.972 1.042s-.972-.428-.972-1.042z" fill="#fff"/></svg>