<svg width="268" height="240" fill="none" xmlns="http://www.w3.org/2000/svg"><path d="M62.126 222.89a2.2 2.2 0 01-2.036-2.356L73.752 27.366c1.098-15.486-4.8-21.92-8.745-24.47-1.023-.662-.668-2.247.532-2.45C73.997-.953 93.16-.884 91.022 29.29L77.41 221.763a2.199 2.199 0 01-2.349 2.043l-12.935-.916z" fill="#fff"/><path d="M95.483 223.263a2.201 2.201 0 01-2.171-2.229L95.55 27.4c.186-15.528-6.075-21.606-10.165-23.911-1.064-.602-.802-2.204.389-2.475 8.356-1.899 27.494-2.967 27.147 27.284l-2.247 192.931a2.2 2.2 0 01-2.222 2.178l-12.97-.144z" fill="#fff"/><path d="M245.97 120.526h-17.118c-9.634 0-17.52-7.907-17.52-17.58V65.118c0-9.673 7.886-17.58 17.52-17.58h17.118c9.635 0 17.521 7.907 17.521 17.58v37.828c0 9.665-7.886 17.58-17.521 17.58z" stroke="#fff" stroke-width="2"/><path d="M228.482 154.913h-60.741v-14.189h55.089c5.466 0 9.902 4.45 9.902 9.934-.008 2.348-1.909 4.255-4.25 4.255zm-72.029 68.494h-13.966l-6.312-41.591h13.967l6.311 41.591zm49.555 0h-13.967l-6.303-41.591h13.967l6.303 41.591z" fill="#A67EE5" stroke="#fff" stroke-width="2" stroke-miterlimit="10"/><path d="M252.309 167.551h-55.891a5.595 5.595 0 01-5.526-4.772l-10.857-72.242c4.174-3.5 6.717-8.9 6.303-14.883-.608-8.74-7.672-15.825-16.383-16.427-.811-.06-1.614-.05-2.408 0h-55.089l-.312 102.89 15.766 23.352 47.189 8.391c1.326.483 2.746.754 4.224.754h72.984c7.452 0 13.485-6.06 13.485-13.527 0-7.476-6.033-13.536-13.485-13.536z" fill="#A67EE5" stroke="#fff" stroke-width="2" stroke-miterlimit="10"/><path d="M133.404 162.787l-10.857-72.241c4.174-3.5 6.717-8.9 6.303-14.884-.608-8.739-7.672-15.825-16.383-16.426-10.333-.712-18.934 7.484-18.934 17.698 0 1.83.278 3.593.785 5.255l15.31 101.89c.913 6.06 6.1 10.544 12.209 10.544h72.984c7.452 0 13.485-6.06 13.485-13.528 0-7.476-6.041-13.527-13.485-13.527H138.93a5.625 5.625 0 01-5.526-4.781z" fill="#A67EE5" stroke="#fff" stroke-width="2" stroke-miterlimit="10"/><path d="M177.238 154.913h-71.995l-2.129-14.189h68.472c5.466 0 9.902 4.45 9.902 9.934-.008 2.348-1.909 4.255-4.25 4.255z" fill="#A67EE5" stroke="#fff" stroke-width="2" stroke-miterlimit="10"/><path d="M122.547 90.537h57.488" stroke="#fff" stroke-width="2" stroke-miterlimit="10" stroke-linecap="round"/><path d="M50.163 89.071c10.35 13.753 15.589 26.951 15.589 26.924-.026-.007-9.88-10.007-20.077-23.553C35.503 78.871 28.61 66.582 28.608 66.56c-.026-.007 11.227 8.74 21.555 22.511zm1.759 20.418c13.717 9.539 22.811 20.511 22.797 20.486-.019.006-12.308-6.27-25.84-15.708-13.514-9.465-23.412-18.675-23.416-18.7-.023.007 12.753 4.356 26.459 13.922z" fill="#36E69A"/><path d="M64.64 100.581c4.567 16.471 10.059 29.379 10.079 29.394-.018.017.097-13.847-4.497-30.522-4.563-16.677-12.075-29.46-12.055-29.445-.014.014 1.937 14.1 6.473 30.573z" fill="#36E69A"/><path d="M78.298 108.621c.095 16.905 2.051 30.654 2.06 30.67-.025.004 3.784-13.013 3.763-30.054.008-17.037-3.966-31.378-3.958-31.355-.019.005-1.929 13.843-1.865 30.739z" fill="#25B774"/><path d="M54.065 124.656c15.151 6.039 26.312 14.657 26.294 14.635-.008.015-13.167-3.197-28.171-9.239-14.994-6.071-26.355-12.676-26.368-12.69-.014.013 13.099 1.224 28.245 7.294zm4.979 14.274c15.592 4.071 27.573 11.22 27.556 11.209-.003.023-13.309-1.46-28.784-5.605-15.473-4.17-27.41-9.318-27.419-9.334-.006.026 13.06-.372 28.647 3.73zm30.652-19.044c-2.764 16.471-3.098 30.231-3.095 30.246-.023-.003 5.936-11.994 8.824-28.543 2.913-16.535 1.416-31.206 1.422-31.188-.028 0-4.359 13.026-7.151 29.485z" fill="#25B774"/><path d="M69.84 157.14c15.412 4.711 27.084 12.354 27.07 12.34-.002.023-13.238-2.017-28.528-6.793-15.29-4.804-26.995-10.439-27.005-10.455-.006.026 13.057.167 28.464 4.908z" fill="#068E4D"/><path d="M101.254 139.387c-3.444 16.341-4.347 30.078-4.341 30.097-.024-.003 6.431-11.74 9.995-28.158 3.595-16.402 2.706-31.116 2.711-31.097-.024-.003-4.893 12.828-8.365 29.158zM79.878 175.79c15.203 5.349 26.557 13.481 26.544 13.467-.006.019-13.147-2.571-28.23-7.979-15.081-5.443-26.544-11.555-26.553-11.571-.007.025 13.041.704 28.24 6.083z" fill="#068E4D"/><path d="M111.998 159.354c-4.117 16.186-5.586 29.887-5.579 29.899-.026-.007 6.906-11.475 11.148-27.729 4.268-16.247 3.994-30.981 3.993-30.964-.024-.003-5.419 12.614-9.562 28.794z" fill="#068E4D"/><path d="M63.598 112.768a529.294 529.294 0 0156.86 110.366" stroke="#36E69A" stroke-width="2" stroke-miterlimit="10" stroke-linecap="round" stroke-linejoin="round"/><path d="M43.01 224.097H266.5" stroke="#fff" stroke-width="2" stroke-miterlimit="10" stroke-linecap="round"/></svg>