<svg width="104" height="69" fill="none" xmlns="http://www.w3.org/2000/svg"><path d="M64.853 10.745c.932-.182 1.64.816 1.153 1.63-1.967 3.278-5.244 9.654-1.618 10.631 2.586.698-1.722-19.094 17.494-14.92.871.19 1.148 1.29.481 1.882-1.224 1.083-2.777 2.693-3.406 4.344-.375.985.747 1.871 1.624 1.287 3.308-2.203 11.192-5.727 20.369 2.278.297.26.432.658.35 1.044-.535 2.574-2.773 12.385-6.097 14.184-3.833 2.076-8.312-1.06-10.148 1.73-2.076 3.156 2.727 3.95 6.704 2.672.9-.29 1.713.648 1.307 1.503-1.255 2.65-3.988 6.5-9.388 6.966-8.33.72-10.204-8.32-11.69-7.149-2.251 1.776 2.182 5.848 4.727 7.906.703.569.44 1.692-.44 1.906-6.825 1.658-16.58-.938-17.218-10.35-.674-9.948-3.827-8.874-4.8-13.878-1.057-5.436 2.524-12.078 10.596-13.666zm7.853 22.202c-.32 1.459 1.85 2.821 3.535 3.19 1.686.37 4.997-.143 5.316-1.602.32-1.458-2.474-3.307-4.16-3.676-1.685-.368-4.373.631-4.691 2.088z" fill="#E81A5A"/><path d="M89.56 47.366c.227.318.252.736.073 1.081-.8 1.539-3.291 5.72-7.171 6.726-2.648.686-3.728-2.004-5.264-.58-1.569 1.454.565 2.577 2.919 2.647.917.027 1.373 1.122.729 1.776-1.266 1.282-3.31 2.603-6.156 2.16-5.183-.811-4.97-6.599-6.05-6.108-1.458.661.037 3.225 1.258 4.934.52.726-.049 1.727-.938 1.651-4.242-.36-9.078-3.376-8.12-8.85 1.08-6.162-1.001-5.98-.844-9.176.164-3.352 3.135-6.741 7.983-6.75a1.045 1.045 0 01.831 1.681c-1.557 2.043-3.926 5.483-2.43 5.733 1.65.277 1.202-10.878 14.848-4.8.72.32.836 1.296.212 1.777l-.057.045c-.87.68-.234 2.082.846 1.85 1.874-.405 4.47.188 7.331 4.203z" fill="#FE6183"/><path d="M51.286 68.107a1.922 1.922 0 001.918-1.918v-2.75a1.922 1.922 0 00-1.918-1.918 1.922 1.922 0 00-1.917 1.918v2.75c0 1.054.864 1.918 1.917 1.918zm-41.023 0a1.922 1.922 0 001.917-1.918v-2.75a1.922 1.922 0 00-1.917-1.918 1.922 1.922 0 00-1.918 1.918v2.75c0 1.054.864 1.918 1.918 1.918z" fill="#A67EE5" stroke="#fff" stroke-miterlimit="10"/><path d="M7.31 63.439h40.46c3.39 0 6.163-2.773 6.163-6.163V21.39c0-3.39-2.773-6.163-6.163-6.163H7.31c-3.39 0-6.163 2.773-6.163 6.163v35.887c0 3.39 2.773 6.163 6.162 6.163z" fill="#A67EE5" stroke="#fff" stroke-miterlimit="10"/><path d="M41.08 20.07v24.417M21.918 20.07v24.417" stroke="#fff" stroke-miterlimit="10" stroke-linecap="round"/><path d="M22.7 8.514h17.598a2.22 2.22 0 012.215 2.215v8.693c0 .36-.289.648-.649.648h-1.467a.646.646 0 01-.649-.648v-7.81a.692.692 0 00-.688-.69H23.934a.692.692 0 00-.689.69v7.81c0 .36-.288.648-.648.648H21.13a.646.646 0 01-.648-.648v-8.693c.005-1.22 1-2.215 2.22-2.215z" fill="#A67EE5" stroke="#fff" stroke-miterlimit="10"/><path d="M15.142 63.439h40.462c3.39 0 6.162-2.773 6.162-6.163V21.39c0-3.39-2.773-6.163-6.162-6.163H15.142c-3.39 0-6.162 2.773-6.162 6.163v35.887c.004 3.39 2.777 6.163 6.162 6.163z" fill="#A67EE5" stroke="#fff" stroke-miterlimit="10"/><path d="M52.551 26.584H18.2m34.352 12.749H18.2M52.551 52.08H18.2" stroke="#fff" stroke-miterlimit="10" stroke-linecap="round"/><path d="M5.792 27.263h.365v24.143h-.365a1.915 1.915 0 01-1.908-1.909v-20.32a1.91 1.91 0 011.908-1.914z" fill="#A67EE5" stroke="#fff" stroke-miterlimit="10"/></svg>