<svg xmlns="http://www.w3.org/2000/svg" viewBox="0 0 319.75 276"><path d="M249.34 152.82a2 2 0 013.15 2c-1 7-2.07 20.33 4.85 19.4 4.94-.66-16.65-31.53 19.32-38.16a2 2 0 012.18 2.89c-1.32 2.74-2.83 6.61-2.73 9.9a2 2 0 003.71 1c4.1-6.15 15.1-17.86 36.59-10.7a2 2 0 011.35 1.54c.93 4.8 4.13 23.24-.29 28.72-5.09 6.31-15 4.14-16.18 10.25-1.3 6.91 7.51 4.82 13.42-.22a2 2 0 013.32 1.64c-.25 5.45-2.18 14-11.12 18.69-13.78 7.21-23.48-7-25.19-3.88-2.59 4.66 7.94 8.47 13.78 10.18a2 2 0 01.61 3.59c-10.52 7.74-29.13 10.28-37-5.41-8.3-16.59-12.93-12.49-18.19-20.38-5.71-8.57-4.33-22.54 8.38-31.05m29.4 32.47c.5 2.73 5.2 3.51 8.35 2.94s8.47-3.83 8-6.56-6.62-3.9-9.78-3.33-7.05 4.22-6.55 6.95" fill="#e81a5a"/><path d="M248.87 273.88s-4.91-70.27 5.54-80.72" fill="none" stroke="#e81a5a" stroke-miterlimit="10" stroke-width="2"/><path fill="none" stroke="#fff" stroke-linecap="round" stroke-miterlimit="10" stroke-width="2" d="M51.31 23.72h39.77M71.09 13.45H43.73a12.4 12.4 0 10-24.8 0H1m78.35 0h22.2M258 91.28h39.78M286.05 81h22.2"/><path d="M221.64 65h-19.45a35.49 35.49 0 00-68-13.69A26.34 26.34 0 00121.3 48a26.72 26.72 0 00-24.8 17H81.35a10.5 10.5 0 000 21h140.3a10.5 10.5 0 000-21" fill="#fff"/><path d="M308.79 229.4a2.14 2.14 0 01.55 2.17c-1.06 3.43-4.58 12.85-12.1 16.34-5.13 2.38-8.33-2.7-10.92.77s2.1 5 6.92 4.31a2.16 2.16 0 012.14 3.34 14.34 14.34 0 01-11.73 6.67c-10.84.27-12.55-11.58-14.57-10.19-2.72 1.89 1.27 6.55 4.39 9.57a2.16 2.16 0 01-1.3 3.71c-8.76.84-19.72-3.51-19.8-15-.08-12.94-4.25-11.8-5.11-18.35-.91-6.88 3.88-14.88 13.74-16.69a2.16 2.16 0 012.31 3.11c-2.41 4.73-6 12.6-2.82 12.56 3.46 0-1.58-22.58 28.43-15.26a2.16 2.16 0 011.09 3.54l-.1.11a2.16 2.16 0 002.41 3.45c3.66-1.52 9.16-1.27 16.47 5.84" fill="#fe6183"/><path d="M231 273.88s3.48-30.11 21.7-30.11" fill="none" stroke="#fe6183" stroke-miterlimit="10" stroke-width="2"/><path fill="none" stroke="#fff" stroke-width="2" d="M27 275h278"/></svg>