<svg xmlns="http://www.w3.org/2000/svg" viewBox="0 0 187.75 248.1"><path d="M117.34 124.81a2 2 0 013.15 2c-1 7-2.07 20.33 4.85 19.4 4.94-.66-16.65-31.53 19.32-38.16a2 2 0 012.18 2.88c-1.32 2.74-2.83 6.62-2.73 9.9a2 2 0 003.71 1c4.1-6.15 15.1-17.86 36.59-10.7a2 2 0 011.35 1.54c.93 4.8 4.13 23.24-.29 28.72-5.09 6.31-15 4.14-16.18 10.25-1.3 6.91 7.51 4.82 13.42-.22a2 2 0 013.32 1.64c-.25 5.45-2.18 14-11.12 18.69-13.78 7.21-23.48-7-25.19-3.88-2.59 4.66 7.94 8.47 13.78 10.18a2 2 0 01.61 3.59c-10.52 7.74-29.13 10.28-37-5.41-8.3-16.59-12.93-12.49-18.19-20.38-5.71-8.57-4.33-22.54 8.38-31.05m29.4 32.47c.5 2.73 5.2 3.51 8.35 2.94s8.47-3.83 8-6.56-6.62-3.9-9.78-3.33-7.05 4.22-6.55 6.95" fill="#e81a5a"/><path d="M116.87 245.87s-4.91-70.27 5.54-80.72" fill="none" stroke="#e81a5a" stroke-miterlimit="10" stroke-width="2"/><path d="M105.76 247.09a3.54 3.54 0 003.53-3.53v-5.07a3.53 3.53 0 10-7.06 0v5.07a3.55 3.55 0 003.53 3.53" fill="#a67ee5"/><path d="M105.76 247.09a3.54 3.54 0 003.53-3.53v-5.07a3.53 3.53 0 10-7.06 0v5.07a3.55 3.55 0 003.53 3.53z" fill="none" stroke="#fff" stroke-miterlimit="10" stroke-width="2"/><path d="M30.22 247.09a3.54 3.54 0 003.53-3.53v-5.07a3.53 3.53 0 10-7.06 0v5.07a3.54 3.54 0 003.53 3.53" fill="#a67ee5"/><path d="M30.22 247.09a3.54 3.54 0 003.53-3.53v-5.07a3.53 3.53 0 10-7.06 0v5.07a3.54 3.54 0 003.53 3.53z" fill="none" stroke="#fff" stroke-miterlimit="10" stroke-width="2"/><path d="M24.79 238.5h74.5a11.38 11.38 0 0011.35-11.35v-66.08a11.38 11.38 0 00-11.35-11.35h-74.5a11.38 11.38 0 00-11.35 11.35v66.08a11.38 11.38 0 0011.35 11.35" fill="#a67ee5"/><rect x="13.44" y="149.73" width="97.2" height="88.78" rx="11.35" ry="11.35" fill="none" stroke="#fff" stroke-miterlimit="10" stroke-width="2"/><path d="M53.13 137.36h32.4a4.09 4.09 0 014.08 4.08v16a1.19 1.19 0 01-1.19 1.19h-2.7a1.19 1.19 0 01-1.19-1.19v-14.37a1.27 1.27 0 00-1.27-1.27H55.4a1.27 1.27 0 00-1.27 1.27v14.38a1.19 1.19 0 01-1.19 1.19h-2.7a1.19 1.19 0 01-1.19-1.19v-16a4.1 4.1 0 014.09-4.08" fill="#a67ee5"/><path d="M53.13 137.36h32.4a4.09 4.09 0 014.08 4.08v16a1.19 1.19 0 01-1.19 1.19h-2.7a1.19 1.19 0 01-1.19-1.19v-14.37a1.27 1.27 0 00-1.27-1.27H55.4a1.27 1.27 0 00-1.27 1.27v14.38a1.19 1.19 0 01-1.19 1.19h-2.7a1.19 1.19 0 01-1.19-1.19v-16a4.1 4.1 0 014.08-4.09z" fill="none" stroke="#fff" stroke-miterlimit="10" stroke-width="2"/><path d="M39.21 238.5h74.5a11.38 11.38 0 0011.35-11.35v-66.08a11.38 11.38 0 00-11.35-11.35h-74.5a11.38 11.38 0 00-11.34 11.35v66.08a11.39 11.39 0 0011.35 11.35" fill="#a67ee5"/><path d="M39.21 238.5h74.5a11.38 11.38 0 0011.35-11.35v-66.08a11.38 11.38 0 00-11.35-11.35h-74.5a11.38 11.38 0 00-11.34 11.35v66.08a11.39 11.39 0 0011.34 11.35z" fill="none" stroke="#fff" stroke-miterlimit="10" stroke-width="2"/><path fill="none" stroke="#fff" stroke-linecap="round" stroke-miterlimit="10" stroke-width="2" d="M108.1 170.64H44.84m63.26 23.48H44.84m63.26 23.47H44.84"/><path d="M21.99 171.89h.67v44.46h-.67a3.53 3.53 0 01-3.52-3.51v-37.43a3.52 3.52 0 013.52-3.52" fill="#a67ee5"/><path d="M21.99 171.89h.67v44.46h-.67a3.53 3.53 0 01-3.52-3.51v-37.43a3.52 3.52 0 013.52-3.52z" fill="none" stroke="#fff" stroke-miterlimit="10" stroke-width="2"/><path fill="none" stroke="#fff" stroke-linecap="round" stroke-linejoin="round" stroke-width="2" d="M69.34 137.08L13.75 57.25m55.59 79.83L50.8 57.25m37.06 0l-18.52 79.83m55.58-79.83l-55.58 79.83"/><path d="M69.33 1.65a55.58 55.58 0 0155.54 55.56c0-6.76-8.3-12.25-18.53-12.25s-18.31 5.35-18.52 12v.26c0-6.76-8.3-12.25-18.53-12.25s-18.54 5.49-18.54 12.25v-.26c-.22-6.64-8.42-12-18.52-12s-18.52 5.49-18.52 12.25A55.58 55.58 0 0169.3 1.62m0-1.66a57.31 57.31 0 00-57.21 57.25 1.66 1.66 0 103.32 0c0-5.84 7.57-10.59 16.87-10.59 9.11 0 16.68 4.66 16.86 10.38v.21a1.66 1.66 0 003.32 0c0-5.84 7.57-10.59 16.87-10.59S86.2 51.37 86.2 57.21a1.66 1.66 0 003.32 0V57c.18-5.73 7.74-10.39 16.86-10.39 9.3 0 16.87 4.75 16.87 10.59a1.66 1.66 0 103.32 0A57.3 57.3 0 0069.34-.05" fill="#fff"/><path d="M69.33 1.65c9.92 0 18 20.9 18.54 55.33.21-6.65 8.41-12 18.52-12s18.48 5.5 18.48 12.23A55.59 55.59 0 0069.28 1.62" fill="#e81a5a"/><path d="M69.32 1.65a55.58 55.58 0 00-55.58 55.56c0-6.76 8.3-12.25 18.52-12.25s18.3 5.35 18.52 12c.52-34.43 8.61-55.32 18.53-55.32" fill="#fe6183"/><path d="M69.33 1.65c-9.93 0-18 20.9-18.54 55.32v.26c0-6.76 8.3-12.25 18.53-12.25s18.55 5.5 18.55 12.23v-.26c-.51-34.43-8.6-55.33-18.52-55.33" fill="#f7396b"/><path d="M176.79 201.4a2.15 2.15 0 01.55 2.17c-1.06 3.43-4.58 12.85-12.1 16.34-5.14 2.38-8.33-2.7-10.92.77s2.1 5 6.92 4.31a2.16 2.16 0 012.14 3.34 14.34 14.34 0 01-11.73 6.67c-10.84.27-12.55-11.58-14.57-10.19-2.72 1.89 1.27 6.55 4.39 9.57a2.16 2.16 0 01-1.3 3.71c-8.76.84-19.72-3.51-19.8-15-.08-12.94-4.25-11.8-5.11-18.35-.91-6.88 3.88-14.88 13.74-16.69a2.16 2.16 0 012.31 3.11c-2.41 4.73-6 12.6-2.82 12.56 3.46 0-1.58-22.58 28.43-15.26a2.16 2.16 0 011.09 3.54l-.1.11a2.16 2.16 0 002.41 3.45c3.66-1.52 9.16-1.27 16.47 5.84" fill="#fe6183"/><path d="M99 245.88s3.48-30.11 21.7-30.11" fill="none" stroke="#fe6183" stroke-miterlimit="10" stroke-width="2"/><path fill="none" stroke="#fff" stroke-linecap="round" stroke-miterlimit="10" stroke-width="2" d="M1 247.1h136.66"/></svg>