<svg xmlns="http://www.w3.org/2000/svg" viewBox="0 0 568.85 109.24"><path d="M13.9 22.94V90.5H.5v-84h72.4v84H59.42V22.94H13.9zM146.66 4.1c32.88 0 59.52 19.92 59.52 44.4s-26.64 44.4-59.52 44.4-59.52-19.92-59.52-44.4 26.64-44.4 59.52-44.4zm0 72.12c24.48 0 44.4-12.36 44.4-27.72s-19.92-27.84-44.4-27.84c-24.76 0-44.76 12.36-44.76 27.84s20 27.72 44.76 27.72zM285.26 6.5v16.44H233.9v14.4h25.32c25.44 0 34 11.16 34 26.52 0 15.6-8.52 26.64-34 26.64h-38.76v-84h64.8zm-30.48 68.52c15.12 0 23.52-2 23.52-11.52s-8.4-10.56-23.52-10.56H233.9v22.08h20.88zM369.37 6.5v16.44h-50.63V40.1h33.6v16.4h-33.6v17.56h50.64V90.5H305.3v-84h64.08zm10.92 102.24V74.06h7.44c4.56-4.68 7.8-18.36 8.76-56l.41-11.56h48.6v67.56h10v34.68h-14.73V90.5H394.9v18.24h-14.61zm51.72-34.68V22.94h-22.56v3.12c-.48 22.44-3.24 37.68-7.2 48h29.76zm29.64 16.44l28-84h27.12l28.08 84h-13.48l-7.8-23.52h-37.8l-7.8 23.52h-16.32zm56.64-40L504.9 10.34 491.41 50.5h26.88zm33.73 18.4L553.45.5h13.45l1.44 68.4h-16.32zm8.28 6.36c4.8 0 8 3.24 8 8.16a8.04 8.04 0 11-16.08 0c.03-4.92 3.27-8.16 8.07-8.16z" fill="none" stroke="currentColor"/></svg>