<svg width="17" height="10" fill="none" xmlns="http://www.w3.org/2000/svg"><path d="M14.123 4.9s2.24-3.173 2.464-4.22c.073-.368-.092-.577-.48-.577h-1.939c-.444 0-.61.19-.744.477 0 0-1.052 2.246-2.327 3.667-.41.456-.619.596-.846.596-.186 0-.265-.152-.265-.565V.65c0-.501-.06-.648-.48-.648h-3.11c-.24 0-.388.133-.388.324 0 .476.726.583.726 1.877v2.671c0 .532-.028.743-.281.743-.673 0-2.258-2.31-3.147-4.937C3.13.145 2.937 0 2.435 0H.486C.206 0 0 .19 0 .477 0 .99.607 3.408 2.993 6.644 4.599 8.82 6.706 10 8.603 10c1.159 0 1.439-.197 1.439-.686V7.64c0-.413.165-.59.4-.59.266 0 .743.083 1.838 1.174C13.585 9.479 13.677 10 14.39 10h2.178c.224 0 .432-.107.432-.477 0-.494-.638-1.37-1.616-2.416-.404-.54-1.054-1.118-1.26-1.384-.296-.315-.209-.493 0-.823z" fill="currentColor"/></svg>